<?xml version="1.0" standalone="no"?>
<!DOCTYPE svg PUBLIC "-//W3C//DTD SVG 20010904//EN"
 "http://www.w3.org/TR/2001/REC-SVG-20010904/DTD/svg10.dtd">
<svg version="1.0" xmlns="http://www.w3.org/2000/svg"
 width="572.000000pt" height="1200.000000pt" viewBox="0 0 572.000000 1200.000000"
 preserveAspectRatio="xMidYMid meet">

<g transform="translate(0.000000,1200.000000) scale(0.100000,-0.100000)"
fill="#000000" stroke="none">
<path d="M2065 11885 c-27 -8 -53 -14 -57 -15 -5 0 -8 -10 -8 -22 0 -77 -49
-152 -105 -162 -30 -6 -34 -10 -30 -29 3 -12 30 -168 60 -347 31 -179 64 -377
75 -440 11 -63 41 -239 66 -390 25 -151 48 -291 51 -310 4 -23 21 -51 50 -80
39 -41 83 -128 83 -165 0 -10 11 -15 35 -15 42 0 42 -4 20 185 -8 71 -18 154
-21 183 -3 29 -10 50 -15 47 -5 -3 -6 0 -3 8 8 22 -63 45 -104 34 -18 -6 -34
-8 -36 -6 -8 8 6 59 15 53 5 -3 6 1 3 9 -9 24 25 41 82 41 30 1 54 2 54 3 0 2
-15 69 -34 150 -19 82 -37 163 -41 181 -6 30 -9 33 -35 27 -16 -3 -31 -2 -35
4 -9 15 -21 14 -38 -3 -8 -8 -24 -12 -35 -9 -17 4 -20 11 -16 37 4 17 17 41
31 54 22 20 31 22 84 16 32 -4 59 -5 59 -2 0 2 -13 51 -29 109 -15 57 -36 134
-46 172 -14 53 -20 65 -30 57 -11 -9 -12 -7 -8 8 3 15 -2 21 -21 26 -26 6 -44
45 -31 65 9 16 -1 13 -19 -5 -20 -20 -20 -34 0 -34 8 0 12 -5 8 -11 -3 -6 -19
-9 -35 -5 -27 5 -28 4 -18 -21 8 -23 8 -24 -6 -13 -18 15 -20 79 -2 100 13 16
131 22 155 7 17 -11 15 -44 -4 -51 -12 -5 -14 -1 -9 15 7 21 7 21 -24 3 -33
-19 -33 -26 1 -31 12 -2 24 -5 26 -8 3 -2 15 -46 29 -97 13 -51 37 -142 53
-203 128 -490 152 -586 147 -592 -3 -2 -15 36 -27 84 -13 48 -39 151 -59 228
-26 100 -40 139 -50 137 -9 -2 -12 4 -8 18 5 18 2 20 -16 14 -12 -4 -25 -11
-28 -17 -4 -5 -9 -1 -12 9 -4 18 -5 18 -6 1 -1 -21 25 -51 37 -43 5 3 14 -5
20 -17 9 -19 70 -280 87 -377 4 -19 9 -44 12 -55 5 -18 4 -18 -14 3 -21 23
-43 29 -43 12 0 -5 -7 -10 -16 -10 -13 0 -14 -3 -4 -15 7 -9 21 -13 35 -9 26
6 25 13 50 -231 22 -215 25 -235 35 -235 5 0 10 37 12 83 3 62 -3 113 -25 212
-15 72 -26 139 -25 150 2 11 16 -43 33 -119 28 -135 29 -138 41 -105 13 37 17
12 5 -31 -6 -21 -2 -54 24 -165 3 -15 13 -21 35 -23 29 -2 30 -1 24 25 -4 16
-27 107 -52 203 -24 96 -46 186 -48 200 -7 47 33 -85 77 -257 l44 -173 31 0
c24 0 33 5 39 23 10 33 19 888 9 886 -27 -5 -33 2 -27 34 3 17 12 39 19 48 10
11 15 50 16 125 l2 109 3 -102 c4 -99 5 -103 26 -103 12 0 28 -4 36 -9 9 -6
21 -5 33 2 16 10 22 8 34 -8 15 -21 15 -37 -1 -35 -6 1 -9 9 -8 18 1 10 0 11
-3 5 -3 -7 -12 -13 -19 -13 -8 0 -17 -9 -20 -20 -3 -11 -10 -20 -15 -20 -5 0
-11 -46 -13 -102 l-3 -103 -2 102 c-2 96 -3 101 -22 96 -19 -5 -20 -14 -20
-212 1 -145 4 -201 11 -188 5 9 15 17 22 17 8 0 6 -4 -3 -11 -13 -9 -13 -10 0
-6 10 2 17 22 21 58 l6 54 1 -50 c2 -48 3 -50 29 -49 16 1 37 5 47 9 13 6 23
3 32 -10 18 -25 18 -41 -2 -49 -13 -5 -15 -1 -11 21 4 16 4 22 1 16 -3 -7 -10
-13 -16 -13 -12 0 -30 -18 -46 -45 -6 -11 -12 -14 -12 -7 0 6 -4 12 -10 12 -5
0 -11 -19 -11 -42 -1 -26 -3 -33 -6 -18 -8 48 -11 52 -33 40 -20 -11 -21 -19
-19 -216 1 -168 3 -204 15 -204 8 0 14 -9 14 -20 0 -16 5 -19 33 -16 17 2 40
4 49 5 11 1 18 12 21 34 4 31 4 31 5 -5 1 -26 7 -38 17 -38 15 0 32 -46 21
-57 -3 -3 -25 -7 -48 -8 -24 -1 -62 -2 -85 -3 l-42 -2 -4 -142 -3 -143 -2 143
-2 142 -35 0 -35 0 2 -212 3 -213 129 4 c108 2 127 1 116 -10 -9 -10 -34 -13
-86 -11 l-74 2 -2 -137 -2 -138 -6 134 -5 134 -32 2 -33 3 0 -200 0 -201 131
6 c77 3 128 2 123 -3 -5 -5 -45 -11 -89 -14 -44 -3 -82 -5 -85 -6 -3 -1 -22
-1 -42 0 l-38 2 -2 -69 -2 -68 -5 65 c-6 65 -6 65 -38 68 l-33 3 0 -190 0
-191 40 0 40 0 0 111 c0 109 0 110 23 107 30 -4 37 -47 8 -55 -19 -5 -21 -13
-21 -85 0 -78 1 -80 23 -74 12 3 27 6 34 6 7 0 13 20 16 48 l3 47 2 -47 2 -48
57 1 c32 1 70 5 85 10 33 9 37 4 27 -36 -5 -24 -7 -26 -8 -7 -1 22 -4 23 -78
20 l-78 -3 -6 -95 -5 -95 -2 93 -2 92 -35 0 -35 0 -2 -142 -2 -143 -6 140 -5
140 -35 0 -35 0 4 -175 c2 -96 4 -176 5 -177 1 -1 36 1 78 4 l77 6 4 66 3 66
2 -68 2 -67 58 5 c31 3 69 8 84 10 15 2 30 0 33 -4 2 -5 -36 -12 -85 -16 l-90
-7 -2 -117 -2 -116 -6 115 -5 115 -32 3 c-18 2 -33 -1 -33 -6 0 -5 -20 -7 -45
-4 l-45 5 0 -167 0 -166 40 0 40 0 2 138 c0 80 3 118 7 92 3 -25 9 -44 14 -42
18 6 27 1 27 -17 0 -21 -23 -45 -33 -34 -4 3 -7 -27 -7 -67 l0 -73 37 6 c20 4
40 12 45 19 6 10 8 10 8 -1 0 -11 14 -12 68 -6 37 3 77 9 90 12 16 4 22 1 22
-12 0 -9 -4 -14 -9 -10 -6 3 -46 3 -90 -1 l-81 -7 0 -155 0 -155 73 7 c39 4
82 10 95 13 12 3 22 1 22 -5 0 -5 -42 -14 -92 -18 -51 -5 -92 -12 -90 -16 1
-5 2 -69 2 -144 l0 -137 73 7 c39 4 81 8 91 9 10 1 20 -2 22 -8 2 -6 -26 -11
-69 -12 -110 -4 -115 -6 -120 -56 l-4 -42 -1 43 -2 43 -37 -3 -38 -3 -6 -100
-5 -100 -2 98 -2 97 -40 0 -40 0 0 -136 0 -137 61 7 c34 3 75 6 90 6 28 0 28
0 32 78 1 42 3 7 3 -78 0 -85 -2 -122 -3 -82 l-4 72 -39 0 -40 0 0 -54 c0 -45
3 -54 20 -59 26 -7 26 -33 0 -49 -15 -10 -20 -24 -20 -55 0 -43 0 -43 36 -43
19 0 33 -4 30 -8 -3 -5 -19 -7 -36 -4 l-30 4 0 -121 0 -121 33 0 c51 0 56 8
60 100 l3 85 2 -87 c2 -86 2 -87 30 -91 l27 -4 -27 -2 c-16 0 -28 -8 -31 -18
-4 -14 -5 -14 -6 -3 -1 12 -10 15 -38 12 -21 -2 -44 -9 -50 -14 -10 -8 -13 18
-13 124 l0 134 -40 -4 -40 -4 0 -118 0 -119 38 -4 37 -4 -39 -1 -39 -2 7 -221
c3 -122 8 -224 10 -227 3 -2 21 -1 41 2 l35 7 0 106 c0 89 -2 104 -15 99 -8
-3 -25 -1 -37 4 -20 8 -18 9 14 9 l37 1 4 98 c1 53 4 4 5 -110 1 -154 5 -208
15 -211 9 -4 9 -6 -1 -6 -10 -1 -12 -21 -6 -98 4 -54 12 -101 18 -105 8 -5 7
-8 -1 -8 -10 0 -13 -25 -13 -90 0 -89 0 -90 24 -90 14 0 35 4 48 8 13 5 34 5
48 1 24 -7 24 -7 3 -8 -13 -1 -23 -6 -23 -13 0 -8 -3 -9 -10 -2 -5 5 -28 8
-50 6 -38 -4 -40 -6 -40 -38 0 -24 5 -34 15 -34 8 0 15 -4 15 -9 0 -5 -7 -14
-15 -21 -21 -17 -19 -67 2 -79 15 -8 15 -11 3 -12 -8 -1 -22 -3 -30 -4 -8 -1
-32 -3 -52 -4 l-38 -1 0 -74 c0 -41 5 -78 10 -81 6 -4 29 -4 50 0 l40 7 2 71
2 72 3 -70 c2 -39 9 -73 16 -77 9 -6 9 -8 0 -8 -8 0 -13 -13 -13 -30 0 -16 5
-30 10 -30 6 0 10 -7 10 -15 0 -8 -4 -15 -10 -15 -15 0 -12 -57 3 -63 10 -4
10 -6 0 -6 -9 -1 -13 -22 -13 -71 l0 -70 29 0 c56 0 61 6 61 82 0 70 0 70 -25
64 -14 -4 -25 -2 -25 4 0 5 11 10 24 10 20 0 25 6 29 33 2 17 5 -17 5 -77 2
-107 2 -108 25 -103 12 3 47 8 77 11 55 5 55 5 10 -4 -25 -5 -59 -12 -77 -15
-28 -5 -32 -10 -36 -43 l-4 -37 -1 35 c-2 35 -3 36 -39 32 -21 -2 -42 -8 -48
-11 -5 -4 -23 -4 -40 0 l-30 7 28 1 c27 1 27 1 27 77 0 65 -2 75 -16 70 -9 -3
-29 -6 -45 -6 l-29 0 0 -74 c0 -63 3 -75 18 -79 16 -4 16 -5 0 -6 -15 -1 -18
-11 -18 -66 0 -72 1 -72 71 -56 21 5 43 5 50 0 12 -7 11 -9 -1 -10 -8 -1 -22
-3 -30 -4 -8 -1 -32 -3 -52 -4 l-38 -1 0 -63 0 -63 48 6 47 5 6 50 c3 28 6
-15 5 -95 0 -81 -2 -106 -3 -57 l-4 87 -27 0 c-71 0 -71 0 -75 -134 l-3 -121
-2 124 c-2 108 -4 122 -18 117 -9 -3 -29 -6 -46 -6 l-29 0 7 -597 c3 -329 7
-599 8 -600 0 0 22 -4 47 -8 l47 -7 -3 484 -3 483 9 -479 c4 -263 11 -481 13
-484 3 -2 26 -1 51 2 l45 7 2 67 2 67 3 -63 c4 -64 4 -64 31 -57 73 17 160 72
232 144 112 113 167 223 191 385 9 62 8 88 -6 158 -9 45 -27 107 -40 136 -29
64 -120 161 -180 193 -25 13 -45 27 -45 31 0 7 71 17 109 15 30 -2 165 -132
155 -149 -4 -6 -3 -8 3 -5 6 4 14 0 17 -9 3 -8 2 -12 -4 -9 -6 3 -7 -1 -4 -9
3 -9 10 -13 15 -10 5 3 9 -1 9 -9 0 -8 7 -28 16 -45 8 -18 12 -37 8 -43 -5 -8
-3 -9 6 -4 9 6 11 0 5 -26 -5 -26 -4 -30 5 -19 8 11 9 6 4 -24 -4 -22 -3 -37
2 -33 5 3 9 -30 10 -73 0 -44 -2 -77 -6 -75 -3 2 -4 -12 -2 -32 3 -27 1 -34
-8 -28 -9 5 -10 2 -6 -13 9 -27 -43 -166 -87 -233 -48 -75 -136 -171 -149
-163 -6 4 -8 2 -5 -3 4 -6 -12 -23 -34 -38 -23 -15 -38 -21 -34 -13 3 7 1 6
-7 -3 -16 -19 -73 -50 -80 -43 -10 10 -16 -23 -7 -37 8 -12 12 -11 23 3 7 10
16 15 19 11 4 -3 7 0 7 7 0 7 3 10 7 7 3 -4 21 4 38 18 18 13 35 22 38 19 2
-3 13 5 23 18 11 13 32 31 47 41 16 10 26 21 24 24 -3 3 7 18 21 35 15 16 39
47 53 68 15 22 30 36 34 32 3 -4 6 -2 4 3 -2 10 49 126 60 135 3 3 7 12 8 20
1 8 11 48 22 89 28 99 28 227 1 312 -10 34 -16 67 -13 72 4 6 1 7 -7 2 -9 -5
-10 -2 -6 13 5 14 1 24 -11 31 -10 6 -14 11 -10 11 5 0 -1 12 -12 26 -11 15
-18 31 -14 37 3 6 1 7 -5 3 -7 -4 -12 -2 -12 4 0 7 -22 33 -49 58 -26 26 -53
57 -60 69 -6 12 -11 71 -11 140 0 161 -29 563 -44 613 -4 14 5 5 19 -20 47
-79 92 -126 157 -161 62 -33 65 -34 183 -34 83 1 139 6 180 18 33 10 97 20
142 24 112 8 164 -7 225 -68 69 -69 92 -151 91 -324 0 -156 -27 -296 -103
-547 -98 -326 -110 -422 -67 -528 30 -74 66 -123 187 -260 239 -270 315 -370
384 -508 135 -268 162 -610 76 -948 -102 -398 -343 -768 -685 -1052 -111 -92
-124 -105 -61 -61 83 58 258 213 322 285 223 252 387 552 464 851 10 39 15 44
108 94 418 224 728 536 918 924 148 304 177 542 108 890 -37 184 -136 344
-371 602 -186 204 -217 261 -216 393 1 99 20 198 69 350 57 179 75 272 81 430
5 127 3 156 -15 228 -26 101 -89 238 -143 309 -76 101 -261 229 -409 282 -57
20 -219 58 -280 64 -19 3 -3 3 35 2 l70 -2 -40 17 c-23 10 -110 41 -195 69
-85 29 -159 59 -165 68 -5 8 -24 31 -41 51 l-31 35 -15 -24 c-9 -13 -18 -36
-22 -51 -5 -22 -3 -26 9 -22 8 4 15 2 16 -2 5 -55 13 -91 22 -100 14 -14 6
-42 -13 -47 -10 -3 -19 -2 -18 2 0 3 -1 15 -2 26 -2 15 -4 13 -11 -10 -6 -25
-7 -22 -5 18 2 26 -1 50 -5 53 -5 3 -9 15 -10 27 l0 22 -9 -22 c-5 -12 -8 -43
-7 -69 2 -56 -9 -66 -94 -84 l-57 -13 -1 -64 c0 -35 3 -62 8 -59 4 3 5 -14 0
-37 -5 -28 -3 -47 4 -56 9 -11 9 -13 0 -8 -14 9 -41 -76 -38 -121 1 -17 -2
-29 -6 -27 -4 3 -15 -14 -24 -38 -20 -51 -143 -173 -203 -202 -23 -11 -42 -25
-42 -32 0 -6 -5 -15 -12 -19 -7 -5 -9 -2 -5 9 4 10 0 16 -11 15 -9 0 -28 4
-41 8 -17 5 -22 4 -17 -4 5 -8 0 -12 -13 -12 -19 0 -19 1 3 25 23 24 64 26 49
2 -4 -7 0 -8 11 -4 10 4 20 7 23 7 4 0 -1 8 -11 18 -15 18 -14 20 24 37 22 10
40 22 40 27 0 14 -20 9 -49 -13 -16 -12 -35 -19 -43 -17 -7 3 4 13 27 26 81
42 153 131 192 239 25 69 53 210 53 272 0 19 3 31 7 27 12 -11 10 -130 -2
-138 -6 -5 -6 -8 2 -8 19 0 24 15 29 90 4 65 3 70 -16 70 -11 0 -20 4 -20 10
0 5 -12 13 -27 16 -16 4 -33 11 -40 16 -7 5 -45 22 -85 37 -40 16 -97 38 -125
49 l-53 22 0 -38 c0 -27 3 -33 10 -22 8 13 10 12 10 -2 0 -10 -4 -18 -9 -18
-18 0 -23 -41 -8 -63 18 -28 12 -53 -9 -36 -11 9 -14 8 -14 -4 0 -9 5 -19 10
-22 16 -10 13 -58 -3 -52 -9 3 -26 -23 -52 -76 -25 -54 -55 -99 -90 -133 -54
-54 -147 -109 -170 -100 -8 3 -15 1 -17 -4 -2 -6 -9 -6 -18 0 -17 11 -14 -62
-59 1565 -50 1785 -61 2246 -57 2254 3 4 -4 27 -16 51 -25 57 -20 115 20 207
25 56 29 77 25 119 -3 29 -1 60 6 70 6 11 11 13 11 7 0 -14 70 -19 70 -5 0 4
14 15 30 24 46 26 38 77 -16 113 l-28 18 22 -28 c21 -27 27 -59 17 -87 -3 -8
-21 -13 -50 -12 -36 1 -49 7 -69 31 -24 28 -46 73 -46 93 0 5 24 10 53 12 l52
3 -34 11 c-42 12 -46 25 -56 169 l-7 105 50 0 c41 0 56 5 77 25 37 38 33 67
-14 98 -21 14 -57 30 -79 37 -23 6 -43 14 -46 18 -2 4 -9 65 -16 136 -12 143
-12 146 48 146 42 0 92 36 92 67 0 26 -64 73 -127 94 -38 12 -39 15 -52 153
-11 108 -24 130 -85 151 -23 8 -39 26 -65 76 -43 80 -76 105 -167 124 -86 18
-263 18 -329 0z m11 -190 c1 -11 3 -27 5 -35 3 -10 -5 -16 -23 -18 -19 -2 -28
1 -28 11 0 10 7 14 23 11 l22 -5 -22 17 c-13 9 -23 23 -23 31 0 23 45 12 46
-12z m54 -1 c0 15 28 -14 33 -34 3 -13 0 -20 -8 -20 -8 0 -11 8 -8 21 4 16 2
20 -8 17 -8 -3 -13 -12 -11 -22 2 -9 -1 -16 -7 -16 -5 0 -11 18 -13 41 -3 35
-2 38 9 23 7 -10 13 -14 13 -10z m73 -1 c-22 -8 -15 -41 10 -46 l22 -4 -23 -2
c-24 -1 -38 20 -28 44 3 8 11 15 18 14 10 0 10 -2 1 -6z m62 -20 c0 -23 4 -27
20 -25 16 3 17 1 8 -9 -10 -10 -15 -10 -28 1 -15 13 -20 42 -8 53 9 10 9 10 8
-20z m105 7 c0 -5 -7 -10 -16 -10 -13 0 -14 -3 -5 -13 12 -15 5 -27 -14 -27
-7 0 -12 13 -11 30 1 24 5 30 24 30 12 0 22 -4 22 -10z m147 -20 c11 -29 11
-30 -20 -29 -18 1 -24 3 -14 6 9 2 17 11 17 19 0 8 -8 14 -17 14 -15 0 -16 2
-3 10 22 14 25 13 37 -20z m-77 -10 c9 -17 8 -20 -14 -20 -27 0 -41 14 -31 30
10 17 34 11 45 -10z m-172 -84 c85 -29 206 -48 265 -41 31 4 37 3 22 -4 -40
-19 -131 -11 -256 23 -172 47 -190 49 -240 32 -49 -17 -64 -12 -34 11 29 21
151 11 243 -21z m306 -188 c-5 -7 -3 -8 7 -2 8 4 31 9 52 10 28 2 40 -3 48
-17 11 -21 5 -39 -13 -39 -5 0 -8 6 -5 14 5 12 1 13 -24 4 -36 -12 -37 -24 -4
-32 21 -5 24 -10 15 -26 -5 -10 -19 -21 -29 -25 -11 -3 -22 -14 -24 -23 -4
-13 -5 -12 -6 4 -1 14 6 24 19 27 30 8 24 24 -10 29 -20 3 -38 -1 -51 -13 -23
-20 -53 -14 -45 8 3 8 6 23 6 34 0 23 34 59 56 59 9 0 12 -5 8 -12z m264 -44
c17 -12 22 -24 20 -47 -3 -30 -6 -32 -48 -35 -43 -3 -48 0 -78 37 -18 22 -32
45 -32 50 0 18 112 13 138 -5z m-204 -88 c-10 -8 -21 -12 -24 -10 -5 6 21 24
34 24 6 0 1 -6 -10 -14z m266 -387 c19 -35 5 -49 -48 -49 -42 0 -52 5 -82 35
l-34 35 77 0 c67 0 78 -3 87 -21z m-203 -41 c-3 -7 -5 -2 -5 12 0 14 2 19 5
13 2 -7 2 -19 0 -25z m-17 3 c0 -5 -7 -12 -16 -15 -14 -5 -15 -4 -4 9 14 17
20 19 20 6z m10 -26 c0 -2 -10 -9 -22 -15 -22 -11 -22 -10 -4 4 21 17 26 19
26 11z m50 -420 c0 -8 -2 -15 -4 -15 -2 0 -6 7 -10 15 -3 8 -1 15 4 15 6 0 10
-7 10 -15z m-53 -82 c-2 -16 -4 -5 -4 22 0 28 2 40 4 28 2 -13 2 -35 0 -50z
m31 -253 c0 -19 -6 6 -13 55 -7 50 -13 108 -13 130 0 22 6 -3 14 -55 7 -52 12
-111 12 -130z m39 -972 c-3 -8 -6 -5 -6 6 -1 11 2 17 5 13 3 -3 4 -12 1 -19z
m-150 -330 c-3 -8 -6 -5 -6 6 -1 11 2 17 5 13 3 -3 4 -12 1 -19z m80 -30 c-3
-7 -5 -2 -5 12 0 14 2 19 5 13 2 -7 2 -19 0 -25z m10 -350 c-2 -29 -3 -6 -3
52 0 58 1 81 3 53 2 -29 2 -77 0 -105z m-170 -90 c-3 -8 -6 -5 -6 6 -1 11 2
17 5 13 3 -3 4 -12 1 -19z m180 -225 c-2 -27 -3 -5 -3 47 0 52 1 74 3 48 2
-27 2 -69 0 -95z m100 -515 c-3 -7 -5 -2 -5 12 0 14 2 19 5 13 2 -7 2 -19 0
-25z m19 -525 c-4 -4 -37 -8 -74 -9 l-67 -3 64 9 c35 5 66 12 69 15 3 3 8 3
10 0 3 -3 2 -8 -2 -12z m14 -263 c0 -5 -2 -10 -4 -10 -3 0 -8 5 -11 10 -3 6
-1 10 4 10 6 0 11 -4 11 -10z m-30 -4 c0 -2 -18 -6 -40 -8 -22 -2 -40 0 -40 4
0 5 18 8 40 8 22 0 40 -2 40 -4z m-91 -10 c-10 -9 -79 -14 -79 -5 0 5 19 9 42
9 23 0 39 -2 37 -4z m571 -232 c0 -8 -4 -12 -10 -9 -5 3 -10 10 -10 16 0 5 5
9 10 9 6 0 10 -7 10 -16z m-520 -8 c0 -2 -7 -6 -15 -10 -8 -3 -15 -1 -15 4 0
6 7 10 15 10 8 0 15 -2 15 -4z m791 -23 c2 -27 -2 -105 -6 -131 -19 -109 -29
-148 -47 -189 -12 -26 -21 -51 -20 -55 1 -5 -2 -8 -7 -8 -5 0 -12 -8 -15 -17
-14 -42 -156 -166 -172 -150 -3 3 8 13 24 21 17 9 52 37 79 63 38 37 55 65 77
125 16 45 25 85 21 97 -3 11 1 34 10 51 9 17 14 34 11 39 -3 4 2 30 10 57 8
27 14 56 13 64 -3 31 1 50 11 50 6 0 11 -8 11 -17z m-174 -60 c-3 -10 -5 -4
-5 12 0 17 2 24 5 18 2 -7 2 -21 0 -30z m65 -45 c-6 -6 -7 0 -4 19 5 21 7 23
10 9 2 -10 0 -22 -6 -28z m254 16 c-4 -9 -9 -15 -11 -12 -3 3 -3 13 1 22 4 9
9 15 11 12 3 -3 3 -13 -1 -22z m-335 -51 c-16 -66 -39 -119 -79 -180 -35 -55
-50 -66 -48 -35 2 29 27 66 36 53 5 -8 12 -4 23 13 19 29 67 166 67 192 0 10
3 15 6 11 4 -3 1 -28 -5 -54z m45 3 c3 -23 -20 -15 -24 8 -3 11 1 17 9 14 7
-2 13 -12 15 -22z m27 -31 c-7 -21 -13 -19 -13 6 0 11 4 18 10 14 5 -3 7 -12
3 -20z m-33 -10 c0 -15 -14 -34 -22 -29 -6 4 -8 -1 -4 -13 4 -12 -4 -43 -19
-76 -13 -31 -20 -59 -15 -62 5 -3 11 3 15 14 3 11 13 25 21 32 13 11 14 9 2
-17 -7 -16 -20 -36 -29 -45 -14 -14 -17 -14 -25 -2 -7 11 -15 6 -39 -26 -34
-46 -129 -99 -190 -106 -22 -3 -33 -2 -25 1 72 31 124 64 174 112 32 31 55 51
51 43 -6 -10 -4 -12 4 -7 6 4 9 11 6 16 -3 5 -1 19 6 31 9 17 13 19 20 8 7
-11 8 -9 7 6 -4 35 34 134 49 128 7 -3 13 -7 13 -8z m-560 -25 c0 -5 -15 -9
-32 -9 l-33 1 30 8 c17 4 31 8 33 9 1 0 2 -3 2 -9z m577 -12 c-3 -8 -6 -5 -6
6 -1 11 2 17 5 13 3 -3 4 -12 1 -19z m-109 -13 c-6 -14 -13 -23 -16 -21 -7 7
9 46 18 46 5 0 4 -11 -2 -25z m-639 6 c9 -6 1 -10 -25 -13 -47 -6 -55 -2 -23
11 31 12 31 12 48 2z m79 2 c-10 -2 -28 -2 -40 0 -13 2 -5 4 17 4 22 1 32 -1
23 -4z m653 -50 c-10 -17 -10 -16 -11 3 0 23 13 41 18 25 2 -6 -1 -18 -7 -28z
m289 3 c0 -3 -4 -8 -10 -11 -5 -3 -10 -1 -10 4 0 6 5 11 10 11 6 0 10 -2 10
-4z m-920 -61 c0 -8 -7 -15 -15 -15 -8 0 -15 7 -15 15 0 8 7 15 15 15 8 0 15
-7 15 -15z m897 -37 c-3 -7 -5 -2 -5 12 0 14 2 19 5 13 2 -7 2 -19 0 -25z
m-245 0 c-7 -7 -12 -8 -12 -2 0 14 12 26 19 19 2 -3 -1 -11 -7 -17z m-192 -23
c0 -10 -81 -58 -87 -52 -3 4 5 11 19 16 13 5 30 16 37 25 13 15 31 22 31 11z
m163 -20 c-24 -32 -38 -32 -17 0 9 14 20 25 26 25 5 0 1 -11 -9 -25z m-83 -10
c-14 -17 -30 -20 -30 -4 0 5 4 8 9 4 5 -3 12 -1 16 5 3 5 9 10 12 10 3 0 0 -7
-7 -15z m340 -5 c0 -11 -7 -20 -15 -20 -13 0 -14 4 -5 20 6 11 13 20 15 20 3
0 5 -9 5 -20z m-900 -5 c0 -11 -11 -15 -38 -15 -21 0 -42 -4 -47 -8 -6 -5 -26
-5 -45 -1 -19 3 -26 7 -15 8 78 6 130 15 133 22 6 14 12 11 12 -6z m100 5 c0
-5 -2 -10 -4 -10 -3 0 -8 5 -11 10 -3 6 -1 10 4 10 6 0 11 -4 11 -10z m-42 -7
c-10 -2 -26 -2 -35 0 -10 3 -2 5 17 5 19 0 27 -2 18 -5z m1093 -30 c-8 -15
-10 -15 -11 -2 0 17 10 32 18 25 2 -3 -1 -13 -7 -23z m-39 -5 c-7 -7 -12 -8
-12 -2 0 14 12 26 19 19 2 -3 -1 -11 -7 -17z m-747 2 c-3 -5 -12 -10 -18 -10
-7 0 -6 4 3 10 19 12 23 12 15 0z m235 5 c0 -2 -10 -10 -22 -16 -21 -11 -22
-11 -9 4 13 16 31 23 31 12z m283 -4 c3 8 5 -5 4 -28 -1 -24 -6 -43 -10 -43
-5 0 -6 -4 -2 -9 3 -5 2 -12 -2 -14 -5 -3 -8 19 -8 48 0 29 3 49 6 43 4 -6 9
-5 12 3z m254 -58 c-3 -10 -5 -4 -5 12 0 17 2 24 5 18 2 -7 2 -21 0 -30z
m-1149 -120 l77 5 -75 -11 -75 -12 -6 -40 -6 -40 -2 38 c-1 33 -4 37 -28 38
l-28 2 28 4 c27 4 27 6 29 81 l2 77 3 -74 4 -73 77 5z m1179 105 c-3 -8 -6 -5
-6 6 -1 11 2 17 5 13 3 -3 4 -12 1 -19z m-70 -20 c-3 -7 -5 -2 -5 12 0 14 2
19 5 13 2 -7 2 -19 0 -25z m40 -23 c0 -8 -4 -15 -9 -15 -5 0 -7 -10 -5 -22 2
-13 2 -17 0 -10 -3 7 -9 10 -14 7 -5 -3 -7 1 -4 9 3 9 7 23 10 31 2 8 8 15 13
15 5 0 9 -7 9 -15z m-44 -10 c4 -8 3 -16 -1 -19 -4 -3 -9 4 -9 15 -2 23 3 25
10 4z m-570 -12 c-7 -2 -19 -2 -25 0 -7 3 -2 5 12 5 14 0 19 -2 13 -5z m315
-34 c-1 -12 -10 -24 -18 -26 -12 -4 -12 -2 -2 5 8 5 11 20 8 37 -4 20 -2 25 5
18 6 -6 9 -21 7 -34z m-728 11 c0 -5 -10 -10 -22 -9 -22 0 -22 1 -3 9 11 5 21
9 23 9 1 1 2 -3 2 -9z m751 -26 c-5 -16 -10 -21 -10 -12 -1 18 10 51 15 45 2
-1 -1 -16 -5 -33z m31 -16 c-7 -7 -12 -8 -12 -2 0 14 12 26 19 19 2 -3 -1 -11
-7 -17z m195 -15 c-3 -10 -5 -4 -5 12 0 17 2 24 5 18 2 -7 2 -21 0 -30z m-681
10 c-7 -8 -12 -9 -53 -11 -15 -1 -23 -8 -23 -20 0 -9 -11 -26 -25 -36 -14 -10
-25 -25 -25 -32 0 -8 -6 -14 -14 -14 -11 0 -13 7 -6 28 10 37 -4 62 -36 62
-14 0 -22 -4 -19 -10 4 -6 -1 -7 -11 -3 -28 11 6 22 97 32 116 12 123 12 115
4z m77 0 c-7 -2 -21 -2 -30 0 -10 3 -4 5 12 5 17 0 24 -2 18 -5z m370 -33 c-3
-11 -7 -20 -9 -20 -2 0 -4 9 -4 20 0 11 4 20 9 20 5 0 7 -9 4 -20z m269 -2
c-2 -10 -6 -18 -7 -18 -1 0 -5 8 -7 18 -3 11 0 19 7 19 7 0 10 -8 7 -19z
m-300 -51 c-3 -20 -7 -25 -12 -16 -4 8 -5 30 -2 49 4 27 7 31 12 16 3 -10 4
-32 2 -49z m-587 36 c-2 -10 -9 -33 -14 -52 -6 -19 -8 -38 -4 -44 3 -6 1 -7
-4 -4 -18 11 -2 117 17 117 5 0 7 -8 5 -17z m151 -39 c-4 -20 -10 -34 -12 -31
-3 3 -2 21 2 41 3 21 9 35 11 32 3 -3 2 -21 -1 -42z m248 11 c-6 -16 -24 -21
-24 -7 0 11 11 22 21 22 5 0 6 -7 3 -15z m443 -7 c-3 -8 -6 -5 -6 6 -1 11 2
17 5 13 3 -3 4 -12 1 -19z m-725 -3 c-4 -5 -6 -19 -5 -30 1 -16 1 -17 -3 -2
-3 9 -10 15 -15 12 -5 -4 -6 2 -2 12 3 10 2 15 -2 10 -5 -4 -9 -17 -11 -30 -1
-12 -3 -24 -3 -27 -1 -3 -10 -11 -22 -18 -12 -8 -19 -9 -15 -4 3 5 -2 9 -10 9
-22 0 -11 -22 14 -25 11 -2 24 -12 27 -23 5 -15 10 -17 20 -9 11 9 12 7 8 -9
-3 -12 -10 -18 -17 -14 -20 13 -34 11 -40 -4 -4 -11 -1 -13 14 -8 15 5 18 3
14 -10 -4 -9 -13 -14 -20 -11 -7 3 -16 1 -19 -4 -6 -9 10 -14 42 -13 9 0 9 -4
0 -18 -11 -18 -12 -18 -18 -1 -6 16 -7 16 -14 0 -8 -19 23 -60 39 -52 6 3 2
-1 -8 -10 -17 -14 -17 -16 -3 -22 21 -8 22 -21 2 -21 -14 0 -28 27 -23 43 2 5
-1 9 -7 9 -5 0 -8 -6 -7 -14 3 -11 1 -11 -11 0 -8 8 -13 17 -11 21 2 3 0 8 -6
10 -6 2 -6 8 0 18 8 13 10 12 10 -2 0 -10 4 -18 8 -18 5 0 7 14 4 30 -2 17 -8
30 -12 30 -10 0 -7 57 4 67 4 4 5 -6 1 -22 l-6 -30 16 28 c9 15 21 27 28 27 8
0 6 4 -3 10 -8 5 -23 7 -32 4 -14 -4 -16 1 -14 23 2 15 4 33 5 39 0 7 10 14
21 17 11 3 20 12 20 20 0 15 17 22 52 23 9 0 14 -5 10 -11z m753 6 c3 -5 1
-12 -5 -16 -5 -3 -10 1 -10 9 0 18 6 21 15 7z m36 -14 c-10 -9 -11 -8 -5 6 3
10 9 15 12 12 3 -3 0 -11 -7 -18z m-546 3 c3 -5 1 -10 -4 -10 -6 0 -11 5 -11
10 0 6 2 10 4 10 3 0 8 -4 11 -10z m1085 -14 c0 -11 -19 -15 -25 -6 -3 5 1 10
9 10 9 0 16 -2 16 -4z m-889 -21 c5 4 6 -1 3 -9 -3 -9 -11 -13 -18 -9 -6 3 -6
1 2 -8 17 -19 15 -36 -8 -59 -15 -15 -16 -20 -6 -20 8 0 18 -5 22 -12 4 -7 3
-8 -4 -4 -8 5 -12 -1 -12 -16 0 -13 -5 -29 -12 -36 -7 -7 -8 -12 -3 -12 6 0 3
-5 -5 -10 -13 -8 -12 -10 5 -11 11 -1 23 -1 28 0 11 2 9 -17 -3 -24 -5 -3 -10
-1 -10 6 0 7 -3 9 -7 5 -4 -4 -7 -19 -8 -34 0 -17 -6 -28 -17 -30 -14 -3 -17
3 -16 22 1 14 8 26 15 26 7 0 13 4 13 9 0 5 -9 7 -20 4 -16 -4 -19 -2 -14 13
4 11 11 24 16 31 5 7 4 13 -4 16 -10 4 -10 8 2 16 13 9 13 11 -3 11 -16 0 -16
3 -4 28 8 15 12 33 10 40 -3 6 0 12 6 12 6 0 7 7 4 17 -4 11 -3 14 5 9 7 -4
14 4 18 21 4 15 9 22 12 15 2 -7 8 -10 13 -7z m-169 -4 c7 10 8 9 4 -6 -2 -11
-7 -41 -11 -67 -3 -27 -10 -48 -15 -48 -5 0 -7 10 -4 23 3 12 5 42 6 67 0 25
3 39 5 31 5 -11 7 -11 15 0z m-522 -21 c-8 -5 -26 -9 -40 -9 -23 1 -23 2 5 9
43 11 52 11 35 0z m1000 -6 c0 -8 -5 -12 -10 -9 -6 4 -8 11 -5 16 9 14 15 11
15 -7z m30 6 c0 -5 -5 -10 -11 -10 -5 0 -7 5 -4 10 3 6 8 10 11 10 2 0 4 -4 4
-10z m-1100 -16 c0 -2 -15 -4 -32 -3 -27 0 -29 2 -13 8 18 8 45 4 45 -5z m553
-4 c-3 -11 -7 -20 -9 -20 -2 0 -4 9 -4 20 0 11 4 20 9 20 5 0 7 -9 4 -20z
m224 -12 c-3 -8 -6 -5 -6 6 -1 11 2 17 5 13 3 -3 4 -12 1 -19z m300 -22 c-3
-8 -3 -17 1 -19 4 -2 1 -2 -7 0 -12 3 -12 1 0 -14 12 -14 12 -16 0 -8 -11 6
-13 3 -7 -18 5 -20 3 -25 -7 -21 -17 6 -16 66 1 72 6 2 10 8 6 13 -3 5 0 9 6
9 7 0 10 -6 7 -14z m-540 -28 c-3 -7 -5 -2 -5 12 0 14 2 19 5 13 2 -7 2 -19 0
-25z m-609 -115 c20 3 57 8 81 11 24 3 53 8 65 11 16 5 18 4 6 -4 -8 -5 -54
-16 -102 -22 l-87 -13 -4 -50 c-2 -28 -3 3 -3 69 0 66 1 91 3 56 l4 -63 37 5z
m849 82 c0 -8 -7 -15 -15 -15 -12 0 -12 3 -2 15 7 8 13 15 15 15 1 0 2 -7 2
-15z m310 -27 c-3 -7 -5 -2 -5 12 0 14 2 19 5 13 2 -7 2 -19 0 -25z m598 13
c3 -5 1 -12 -5 -16 -5 -3 -10 1 -10 9 0 18 6 21 15 7z m-1145 -22 c0 -4 -9 -7
-19 -6 -11 0 -18 4 -16 7 6 9 35 8 35 -1z m477 -11 c-3 -8 -6 -5 -6 6 -1 11 2
17 5 13 3 -3 4 -12 1 -19z m43 -7 c10 -19 10 -22 -1 -16 -9 6 -11 3 -6 -9 4
-10 3 -15 -3 -11 -6 3 -10 -1 -10 -10 0 -10 5 -13 13 -9 8 5 8 2 -2 -9 -20
-25 -22 -22 -17 31 3 26 5 51 5 56 1 12 5 7 21 -23z m-763 -1 c1 -11 -2 -20
-8 -20 -10 0 -12 23 -2 33 9 9 9 10 10 -13z m237 -15 c-7 -16 -24 -21 -24 -6
0 8 7 13 27 20 1 1 0 -6 -3 -14z m644 -89 c0 -45 0 -85 2 -91 7 -29 -1 -75
-14 -75 -11 0 -13 19 -9 103 3 56 5 118 5 137 -1 24 2 30 8 20 5 -8 8 -50 8
-94z m-621 37 c-3 -10 -5 -4 -5 12 0 17 2 24 5 18 2 -7 2 -21 0 -30z m463 27
c0 -5 -4 -10 -10 -10 -5 0 -10 5 -10 10 0 6 5 10 10 10 6 0 10 -4 10 -10z
m-1157 -7 c-7 -2 -19 -2 -25 0 -7 3 -2 5 12 5 14 0 19 -2 13 -5z m351 -35 c-5
-7 -2 -9 8 -5 11 4 15 0 14 -10 -2 -9 -12 -17 -23 -18 -20 -1 -23 11 -14 53 1
2 6 0 11 -3 6 -4 7 -11 4 -17z m554 6 c-1 -5 -9 -9 -16 -10 -10 -2 -11 1 -1
12 12 14 24 13 17 -2z m52 6 c0 -5 -2 -10 -4 -10 -3 0 -8 5 -11 10 -3 6 -1 10
4 10 6 0 11 -4 11 -10z m206 -23 c12 4 14 -2 11 -31 -2 -19 -1 -33 3 -31 4 2
3 -16 -3 -40 -6 -24 -14 -42 -18 -39 -8 5 -4 84 7 116 3 11 2 18 -3 15 -17
-10 -34 9 -26 29 7 18 8 18 11 -3 2 -15 8 -20 18 -16z m-216 -1 c0 -3 -4 -8
-10 -11 -5 -3 -10 -1 -10 4 0 6 5 11 10 11 6 0 10 -2 10 -4z m-103 -23 c-4 -3
3 -18 15 -32 13 -14 15 -19 6 -12 -15 11 -18 11 -18 -2 0 -9 -4 -18 -8 -21 -5
-3 -9 13 -9 34 0 22 5 40 10 40 6 0 7 -3 4 -7z m-151 -28 c-6 -17 -26 -12 -26
6 0 6 5 7 10 4 6 -3 10 -1 10 6 0 7 3 10 6 6 4 -3 4 -13 0 -22z m222 -25 c-2
-5 -9 -6 -16 -1 -7 4 -10 15 -6 25 6 17 8 17 16 2 5 -9 8 -21 6 -26z m605 15
c4 -8 2 -17 -3 -20 -6 -4 -10 3 -10 14 0 25 6 27 13 6z m-1293 -25 c0 -5 -15
-9 -32 -9 l-33 1 30 8 c17 4 31 8 33 9 1 0 2 -3 2 -9z m717 -5 c0 -8 -7 -15
-15 -15 -11 0 -12 -3 -3 -14 9 -11 8 -15 -4 -20 -9 -3 -13 -2 -10 4 3 6 -2 10
-12 10 -14 0 -12 5 12 25 17 13 30 24 31 25 0 0 1 -7 1 -15z m-852 -21 c-66
-12 -142 -17 -120 -8 16 6 126 22 160 22 17 0 -1 -6 -40 -14z m1037 -66 c-5
-5 -9 5 -10 24 0 31 1 31 9 9 6 -14 6 -28 1 -33z m82 17 c-4 -8 -8 -15 -10
-15 -2 0 -4 7 -4 15 0 8 4 15 10 15 5 0 7 -7 4 -15z m-277 -17 c-3 -8 -6 -5
-6 6 -1 11 2 17 5 13 3 -3 4 -12 1 -19z m226 -20 c-4 -7 -8 -17 -8 -22 0 -5
-6 -11 -12 -13 -14 -5 -16 6 -7 31 3 9 13 16 21 16 9 0 11 -5 6 -12z m143 -25
c-11 -11 -19 6 -11 24 8 17 8 17 12 0 3 -10 2 -21 -1 -24z m-109 -25 c-3 -7
-5 -2 -5 12 0 14 2 19 5 13 2 -7 2 -19 0 -25z m-957 3 c0 -9 -158 -37 -166
-29 -3 3 30 11 72 17 43 6 80 14 83 16 7 7 11 6 11 -4z m1072 -13 c-2 -10 -6
-18 -7 -18 -1 0 -5 8 -7 18 -3 11 0 19 7 19 7 0 10 -8 7 -19z m262 -63 c-4 -8
-11 -12 -16 -9 -6 4 -5 10 3 15 19 12 19 11 13 -6z m-1334 -75 c0 -5 -10 -10
-22 -9 -22 0 -22 1 -3 9 11 5 21 9 23 9 1 1 2 -3 2 -9z m-270 -114 c0 -8 -7
-16 -15 -20 -10 -4 -15 1 -15 14 0 11 7 20 15 20 8 0 15 -6 15 -14z m280 -25
c0 -9 -209 -52 -245 -50 -32 1 -7 8 114 28 62 11 116 23 119 26 8 7 12 6 12
-4z m-187 -173 c9 -6 9 -8 0 -8 -10 0 -14 -34 -15 -132 l-2 -133 -6 135 c-3
74 -3 159 0 190 l5 55 3 -50 c2 -27 9 -53 15 -57z m194 36 c-9 -9 -128 -33
-157 -32 -14 0 13 8 60 18 103 21 105 22 97 14z m-249 -51 c-10 -2 -26 -2 -35
0 -10 3 -2 5 17 5 19 0 27 -2 18 -5z m49 -525 c-1 -46 -3 -9 -3 82 0 91 2 128
3 83 2 -46 2 -120 0 -165z m-100 -130 c-3 -7 -5 -2 -5 12 0 14 2 19 5 13 2 -7
2 -19 0 -25z m0 -305 c-1 -54 -3 -12 -3 92 0 105 2 149 3 98 2 -51 2 -136 0
-190z m110 95 c-2 -29 -3 -6 -3 52 0 58 1 81 3 53 2 -29 2 -77 0 -105z"/>
<path d="M2040 11700 c0 -5 7 -10 16 -10 8 0 12 5 9 10 -3 6 -10 10 -16 10 -5
0 -9 -4 -9 -10z"/>
<path d="M2400 11650 c0 -5 4 -10 9 -10 6 0 13 5 16 10 3 6 -1 10 -9 10 -9 0
-16 -4 -16 -10z"/>
<path d="M2570 11345 c-7 -9 -10 -18 -6 -22 3 -3 6 -1 6 6 0 7 5 9 10 6 6 -3
10 1 10 9 0 20 -4 20 -20 1z"/>
<path d="M4046 11538 c-8 -33 -8 -35 9 -42 12 -4 15 3 15 29 0 39 -15 47 -24
13z"/>
<path d="M3260 11520 c0 -5 5 -10 11 -10 5 0 7 5 4 10 -3 6 -8 10 -11 10 -2 0
-4 -4 -4 -10z"/>
<path d="M3344 11518 c-3 -4 24 -8 60 -8 36 0 66 4 66 8 0 11 -119 11 -126 0z"/>
<path d="M3493 11516 c38 -29 19 -36 -100 -37 -65 -1 -121 -1 -125 0 -10 1
-10 -31 -2 -54 5 -13 8 -14 15 -3 6 8 9 -5 9 -35 0 -33 5 -49 15 -53 8 -4 13
-9 11 -13 -2 -3 14 -7 36 -9 l41 -3 -17 28 c-16 25 -14 25 14 -5 18 -20 37
-31 46 -28 20 7 29 6 27 -5 -3 -8 72 -26 90 -21 4 1 7 -4 7 -10 0 -9 4 -8 10
2 8 12 10 12 10 1 0 -8 11 -2 28 16 16 16 33 28 38 26 15 -5 14 34 -1 47 -9 8
-11 19 -6 33 13 39 8 70 -13 73 -10 1 -22 8 -26 14 -4 7 -32 21 -61 31 -64 22
-69 22 -46 5z m-10 -61 c10 -7 17 -21 15 -30 -3 -15 -5 -15 -23 0 l-20 15 20
-7 c17 -6 18 -5 7 10 -8 8 -26 18 -40 20 -27 4 -27 4 -2 5 14 1 33 -5 43 -13z
m-92 -9 c-6 -8 -11 -18 -10 -22 3 -21 -2 -35 -11 -29 -6 3 -8 16 -4 29 5 20 1
22 -38 25 -66 3 -59 11 12 11 52 0 61 -2 51 -14z m109 -71 c0 -8 -4 -15 -10
-15 -5 0 -7 7 -4 15 4 8 8 15 10 15 2 0 4 -7 4 -15z m-63 -41 c-3 -3 -12 -4
-19 -1 -8 3 -5 6 6 6 11 1 17 -2 13 -5z m63 -4 c0 -5 -2 -10 -4 -10 -3 0 -8 5
-11 10 -3 6 -1 10 4 10 6 0 11 -4 11 -10z"/>
<path d="M3070 11495 c1 -26 2 -28 11 -12 8 14 8 22 0 30 -8 8 -11 3 -11 -18z"/>
<path d="M3833 11513 c15 -2 37 -2 50 0 12 2 0 4 -28 4 -27 0 -38 -2 -22 -4z"/>
<path d="M3298 11503 c6 -2 18 -2 25 0 6 3 1 5 -13 5 -14 0 -19 -2 -12 -5z"/>
<path d="M3800 11470 c0 -32 34 -61 43 -37 3 6 6 3 6 -8 1 -12 -4 -26 -10 -32
-8 -8 -8 -17 1 -33 6 -12 9 -24 7 -27 -3 -2 -10 5 -17 16 -6 12 -20 21 -31 21
-11 0 -18 -4 -14 -9 3 -5 0 -13 -6 -17 -8 -5 -8 -8 0 -14 7 -4 13 -17 14 -28
1 -12 8 -22 17 -23 32 -2 65 3 71 13 3 5 17 6 31 3 30 -8 39 3 40 45 1 17 5
30 10 30 4 0 8 12 8 26 0 14 -3 23 -7 21 -5 -3 -16 6 -26 19 -18 24 -18 24 8
24 14 0 25 5 25 10 0 6 -27 10 -60 10 -46 0 -61 -4 -69 -17 -9 -15 -10 -14
-11 10 0 17 -5 27 -15 27 -10 0 -15 -10 -15 -30z m18 -132 c11 -14 10 -16 -5
-14 -10 2 -17 6 -15 9 1 4 2 12 2 19 0 6 1 9 3 7 1 -2 8 -12 15 -21z"/>
<path d="M3967 11456 c-16 -12 -16 -14 -1 -20 8 -3 32 -6 52 -6 30 0 42 -6 66
-36 21 -26 31 -33 37 -23 10 17 -17 69 -37 69 -9 0 -12 5 -8 13 5 8 2 8 -9 -2
-15 -12 -17 -11 -17 3 0 20 -57 22 -83 2z"/>
<path d="M3070 11449 c0 -5 16 -26 35 -47 l36 -37 -16 39 c-9 22 -18 42 -21
45 -9 9 -34 9 -34 0z"/>
<path d="M1557 11399 c-14 -8 -16 -14 -6 -25 6 -8 18 -14 25 -14 8 0 13 -6 12
-12 -2 -9 18 -15 62 -19 36 -3 70 -4 77 -1 52 17 -34 82 -109 82 -24 0 -51 -5
-61 -11z"/>
<path d="M3149 11398 c7 -9 10 -22 6 -28 -5 -8 8 -10 41 -8 63 4 73 28 12 28
-24 0 -50 6 -58 13 -12 10 -12 9 -1 -5z"/>
<path d="M4163 11383 c-18 -2 -33 -9 -33 -14 0 -15 73 -6 78 9 2 6 0 11 -5 10
-4 0 -23 -3 -40 -5z"/>
<path d="M1992 11355 c-6 -14 -9 -25 -6 -25 10 0 34 28 34 39 0 20 -17 11 -28
-14z"/>
<path d="M1530 11346 c0 -23 3 -27 18 -22 14 5 13 3 -3 -10 l-20 -15 20 -15
c11 -9 28 -20 38 -25 31 -17 20 32 -18 76 l-34 40 -1 -29z"/>
<path d="M1760 11356 c0 -2 16 -6 35 -8 19 -2 35 0 35 4 0 4 -16 8 -35 8 -19
0 -35 -2 -35 -4z"/>
<path d="M1750 11298 l0 -46 29 11 c42 15 61 4 61 -37 0 -19 5 -38 11 -42 7
-4 9 0 6 12 -3 11 -9 40 -13 67 -3 26 -7 47 -8 47 0 0 -17 -4 -35 -10 -27 -7
-32 -7 -23 2 15 15 16 31 1 22 -6 -3 -15 0 -20 7 -6 9 -9 -2 -9 -33z"/>
<path d="M3678 11303 c7 -3 16 -2 19 1 4 3 -2 6 -13 5 -11 0 -14 -3 -6 -6z"/>
<path d="M3626 11284 c-5 -13 -4 -14 7 -6 8 7 18 8 22 4 5 -4 5 -1 1 6 -10 17
-23 15 -30 -4z"/>
<path d="M1668 11273 c12 -2 32 -2 45 0 12 2 2 4 -23 4 -25 0 -35 -2 -22 -4z"/>
<path d="M3925 11270 c3 -5 8 -10 11 -10 2 0 4 5 4 10 0 6 -5 10 -11 10 -5 0
-7 -4 -4 -10z"/>
<path d="M1621 11254 c0 -11 3 -14 6 -6 3 7 2 16 -1 19 -3 4 -6 -2 -5 -13z"/>
<path d="M1693 11223 c9 -2 25 -2 35 0 9 3 1 5 -18 5 -19 0 -27 -2 -17 -5z"/>
<path d="M3997 11143 c-4 -3 -7 -14 -7 -24 0 -13 -10 -19 -37 -21 -37 -3 -37
-4 10 -8 l47 -5 0 32 c0 34 -2 38 -13 26z"/>
<path d="M3160 11128 c-14 -5 -40 -7 -57 -4 -29 4 -33 2 -33 -17 0 -32 15 -54
23 -34 4 10 26 18 61 22 57 7 66 14 44 33 -9 6 -22 6 -38 0z"/>
<path d="M3240 11105 c0 -8 7 -15 16 -15 14 0 14 3 4 15 -7 8 -14 15 -16 15
-2 0 -4 -7 -4 -15z"/>
<path d="M3052 11062 c7 -72 53 -122 111 -122 22 0 45 7 55 16 14 15 11 16
-35 13 -46 -4 -54 -1 -77 24 -14 15 -26 32 -26 38 0 5 -4 7 -10 4 -5 -3 -9 9
-8 30 1 19 -2 38 -7 43 -4 4 -5 -17 -3 -46z"/>
<path d="M3300 11094 c-22 -12 -13 -13 78 -7 67 4 102 2 102 -4 0 -6 -45 -13
-107 -17 -60 -3 -114 -7 -120 -8 -17 -2 -16 -37 2 -72 8 -15 15 -36 15 -45 1
-26 23 -46 55 -48 61 -3 147 -13 156 -18 18 -12 79 -15 79 -4 0 5 4 8 10 4 5
-3 18 3 30 15 23 23 27 70 6 70 -12 0 -12 7 -5 36 7 24 7 39 0 48 -6 7 -7 16
-3 20 4 4 2 7 -3 6 -22 -5 -36 1 -29 12 4 7 3 8 -4 4 -7 -4 -18 -4 -24 1 -22
13 -41 16 -128 19 -58 1 -94 -2 -110 -12z m74 -61 c-8 -8 -14 -21 -14 -28 0
-8 -5 -17 -11 -21 -8 -4 -9 3 -5 22 7 29 7 29 -39 26 -28 -3 -45 0 -45 7 0 7
23 11 64 10 57 -1 63 -3 50 -16z m106 8 c0 -17 -15 -19 -28 -5 -11 12 -9 14 8
14 11 0 20 -4 20 -9z m-77 -57 c-4 -13 -26 -11 -30 3 -2 6 4 10 14 9 10 -2 17
-7 16 -12z m-50 -34 c3 -11 1 -18 -4 -14 -5 3 -9 12 -9 20 0 20 7 17 13 -6z
m119 -2 c-7 -7 -12 -8 -12 -2 0 14 12 26 19 19 2 -3 -1 -11 -7 -17z m-12 -48
c8 -5 11 -10 5 -10 -5 0 -17 5 -25 10 -8 5 -10 10 -5 10 6 0 17 -5 25 -10z"/>
<path d="M3764 11101 c4 -6 32 -11 63 -11 71 0 64 9 -12 16 -41 4 -55 3 -51
-5z"/>
<path d="M3745 11079 c-11 -16 3 -56 19 -56 7 0 12 7 11 16 -2 9 -4 24 -4 34
-1 19 -16 23 -26 6z"/>
<path d="M3785 11060 c-3 -5 3 -10 15 -10 20 0 20 -1 -5 -35 -18 -23 -25 -41
-20 -55 5 -15 2 -20 -12 -21 -10 0 -13 -3 -5 -6 20 -8 14 -21 -15 -37 l-28
-14 38 -7 c32 -6 42 -4 64 16 15 13 23 18 19 12 -5 -9 2 -13 23 -13 26 0 31 4
31 23 0 13 4 27 9 33 5 5 11 27 13 49 4 38 6 40 41 43 50 4 47 19 -3 18 -22
-1 -40 2 -40 6 0 12 -118 10 -125 -2z m125 -17 c-1 -23 -16 -28 -32 -11 -17
17 -17 18 7 18 14 0 25 -3 25 -7z m-35 -51 c-9 -2 -13 -7 -10 -12 7 -12 -12
-23 -26 -15 -6 4 -1 15 13 29 14 13 26 18 30 11 4 -5 1 -11 -7 -13z m-52 -46
c7 3 4 -1 -5 -9 -10 -8 -15 -17 -11 -21 4 -4 0 -4 -10 0 -9 3 -17 10 -17 16 0
5 5 6 10 3 6 -3 11 4 11 17 1 17 3 18 6 5 2 -9 10 -15 16 -11z"/>
<path d="M4006 11034 c-7 -18 4 -42 32 -67 22 -20 103 -21 109 -2 2 7 -12 9
-36 7 -34 -3 -42 0 -58 25 -30 47 -40 55 -47 37z"/>
<path d="M3958 11023 c6 -2 18 -2 25 0 6 3 1 5 -13 5 -14 0 -19 -2 -12 -5z"/>
<path d="M1633 10939 c-6 -6 -9 -18 -6 -27 4 -10 2 -13 -5 -8 -7 4 -13 -6 -18
-29 -7 -40 4 -58 54 -87 l29 -17 -3 25 c-4 37 -33 67 -51 53 -7 -7 -17 -8 -21
-4 -4 4 -1 10 6 12 6 3 12 12 12 21 0 11 3 13 8 6 9 -15 195 -16 185 -1 -4 6
10 8 41 5 32 -4 46 -2 43 5 -2 7 -21 10 -44 9 -31 -3 -52 3 -82 22 -44 28
-127 36 -148 15z"/>
<path d="M3730 10910 c0 -5 7 -7 15 -4 8 4 15 8 15 10 0 2 -7 4 -15 4 -8 0
-15 -4 -15 -10z"/>
<path d="M2612 10888 c-7 -7 -12 -15 -12 -20 0 -12 28 2 34 18 7 17 -6 18 -22
2z"/>
<path d="M2105 10879 c-4 -6 -5 -12 -2 -15 2 -3 7 2 10 11 7 17 1 20 -8 4z"/>
<path d="M1830 10834 c0 -35 -18 -74 -34 -74 -21 0 -28 28 -8 33 10 3 5 5 -10
6 -17 1 -27 -4 -25 -11 1 -6 -9 -14 -23 -18 -21 -6 -18 -8 22 -15 43 -7 50 -5
85 24 21 17 48 31 60 31 13 0 23 6 23 14 0 19 -17 29 -25 16 -3 -5 -16 -10
-28 -9 -12 0 -16 3 -9 6 19 8 14 22 -8 20 -14 -1 -20 -8 -20 -23z"/>
<path d="M3917 10740 c-11 -29 -14 -30 -77 -31 -36 0 -85 0 -110 1 -43 1 -44
1 -23 -14 18 -13 30 -14 72 -5 27 6 77 9 110 6 l61 -4 0 39 c0 45 -17 50 -33
8z"/>
<path d="M3139 10751 c16 -10 -3 -18 -58 -25 -18 -2 -37 -10 -42 -17 -12 -19
-11 -59 1 -59 6 0 10 10 11 23 0 21 1 21 8 2 8 -19 8 -19 20 3 9 18 20 22 56
22 24 0 46 3 48 8 7 10 -29 52 -45 52 -10 0 -10 -2 1 -9z"/>
<path d="M3220 10700 c0 -13 5 -18 15 -14 12 5 13 10 4 20 -15 19 -19 18 -19
-6z"/>
<path d="M3303 10700 c-4 -4 -17 -10 -28 -13 -11 -3 26 -2 83 1 65 3 102 1
102 -5 0 -8 -107 -20 -227 -26 -17 -1 -16 -20 4 -86 20 -65 31 -78 64 -83 13
-1 27 -7 31 -12 3 -5 16 -10 27 -11 17 -1 19 1 10 14 -7 9 1 3 16 -13 21 -23
26 -25 23 -10 -3 21 19 24 93 12 46 -7 86 25 91 73 2 29 0 34 -17 32 -18 -1
-18 0 -4 10 9 7 20 23 24 37 4 14 4 22 0 18 -5 -4 -13 -1 -19 6 -6 8 -34 26
-62 40 -42 22 -63 26 -126 25 -42 -1 -80 -5 -85 -9z m151 -65 c-5 -12 -10 -13
-20 -4 -19 15 -18 19 6 19 13 0 18 -5 14 -15z m-141 -2 c-13 -2 -35 -2 -50 0
-16 2 -5 4 22 4 28 0 40 -2 28 -4z m40 -5 c-4 -7 -8 -17 -8 -22 0 -5 -6 -11
-12 -13 -18 -6 -16 7 4 29 19 21 28 24 16 6z m107 -72 c0 -3 -4 -8 -10 -11 -5
-3 -10 -1 -10 4 0 6 5 11 10 11 6 0 10 -2 10 -4z m-115 -15 c3 -5 1 -12 -5
-16 -5 -3 -10 1 -10 9 0 18 6 21 15 7z m42 -37 c-3 -3 -12 -4 -19 -1 -8 3 -5
6 6 6 11 1 17 -2 13 -5z m53 -4 c8 -5 11 -10 5 -10 -5 0 -17 5 -25 10 -8 5
-10 10 -5 10 6 0 17 -5 25 -10z"/>
<path d="M3685 10680 c-8 -12 5 -60 16 -60 5 0 9 6 9 13 0 9 3 9 9 -1 10 -17
8 -99 -4 -109 -4 -5 -5 -2 -1 5 4 7 1 12 -8 12 -17 0 -48 -39 -40 -52 7 -11
81 -10 88 1 3 5 15 11 26 14 11 3 18 2 15 -3 -3 -4 4 -10 15 -13 14 -4 20 0
20 13 0 10 7 31 15 46 8 16 15 36 15 45 0 9 7 20 16 23 35 13 63 5 89 -26 21
-25 28 -29 35 -17 9 13 -8 49 -34 74 -17 16 -47 18 -44 3 2 -9 -10 -14 -37
-15 -33 -1 -36 0 -15 7 24 8 24 8 3 9 -13 1 -23 6 -23 11 0 14 -114 12 -128
-2 -9 -9 -12 -7 -12 10 0 22 -14 30 -25 12z m75 -34 c0 -3 -4 -8 -10 -11 -5
-3 -10 -1 -10 4 0 6 5 11 10 11 6 0 10 -2 10 -4z m67 -2 c-3 -3 -12 -4 -19 -1
-8 3 -5 6 6 6 11 1 17 -2 13 -5z"/>
<path d="M3040 10620 c0 -17 31 -60 52 -71 38 -21 38 4 -2 42 -42 41 -50 46
-50 29z"/>
<path d="M3158 10553 c12 -2 30 -2 40 0 9 3 -1 5 -23 4 -22 0 -30 -2 -17 -4z"/>
<path d="M1715 10490 c-3 -6 4 -15 17 -20 22 -10 22 -10 -3 -5 -29 5 -39 -12
-39 -72 0 -26 8 -37 49 -67 42 -31 56 -36 103 -36 50 0 57 3 84 35 17 21 38
35 51 35 16 0 21 4 16 16 -4 11 -9 12 -16 5 -6 -6 -20 -11 -30 -11 -16 0 -17
3 -7 15 7 8 11 15 9 16 -38 7 -39 6 -39 -24 0 -52 -12 -61 -64 -54 -36 5 -48
3 -52 -8 -7 -18 -24 -10 -24 12 0 23 -41 75 -55 70 -8 -4 -10 2 -8 17 4 21 9
22 84 19 49 -2 79 1 79 7 0 5 5 10 11 10 5 0 8 -4 5 -8 -3 -5 11 -9 32 -9 33
-1 34 0 11 7 -15 4 -44 19 -65 34 -29 20 -51 26 -91 26 -28 0 -55 -5 -58 -10z"/>
<path d="M1966 10442 c-3 -6 -1 -14 5 -17 14 -9 20 -2 10 14 -6 8 -11 9 -15 3z"/>
<path d="M2178 10443 c7 -3 16 -2 19 1 4 3 -2 6 -13 5 -11 0 -14 -3 -6 -6z"/>
<path d="M2650 10424 c0 -14 3 -14 15 -4 8 7 15 14 15 16 0 2 -7 4 -15 4 -8 0
-15 -7 -15 -16z"/>
<path d="M2181 10416 c-7 -8 -8 -17 -3 -20 6 -3 13 1 16 10 9 23 2 28 -13 10z"/>
<path d="M3723 10328 c-34 -35 -82 -95 -107 -135 -45 -71 -80 -173 -61 -180
11 -3 13 -249 2 -259 -4 -4 -7 -12 -7 -18 0 -6 5 -4 11 4 8 11 9 7 5 -19 -3
-18 -6 -40 -6 -48 0 -8 -5 -11 -11 -7 -8 4 -8 0 0 -15 7 -12 9 -27 5 -33 -5
-7 -3 -8 6 -3 10 6 12 0 6 -31 -4 -21 -6 -70 -5 -109 1 -38 2 -175 3 -302 1
-128 4 -233 8 -233 4 0 3 -12 -2 -26 -13 -33 -13 -54 0 -34 6 9 10 10 10 3 0
-6 -7 -19 -16 -27 -9 -9 -11 -16 -4 -16 7 0 9 -12 4 -36 -4 -21 -3 -34 2 -31
11 6 10 -98 0 -132 -6 -17 -5 -22 4 -16 9 5 10 2 5 -14 -4 -14 -2 -21 7 -21
10 0 10 -2 -1 -9 -8 -6 -13 -23 -12 -43 4 -58 4 -62 -1 -110 -4 -27 -2 -48 3
-48 6 0 6 -7 0 -18 -6 -11 -6 -23 0 -33 5 -7 6 -32 3 -54 -9 -56 -7 -99 5
-103 13 -4 15 -32 2 -32 -5 0 -11 3 -14 8 -2 4 -2 1 0 -6 1 -8 3 -20 3 -28 0
-10 5 -12 13 -8 7 5 7 1 -2 -10 -12 -15 -13 -19 -1 -26 11 -7 11 -11 1 -23 -6
-9 -11 -35 -10 -59 2 -24 -1 -50 -5 -56 -4 -7 -2 -12 5 -12 10 0 10 -3 1 -12
-15 -15 -16 -32 -2 -23 13 8 13 -11 -1 -37 -6 -11 -7 -18 -2 -15 4 3 7 -12 5
-34 -2 -21 -1 -47 3 -57 13 -29 14 -41 2 -39 -6 1 -11 -12 -12 -30 0 -18 3
-33 7 -33 3 0 5 -27 5 -60 -1 -33 0 -60 3 -60 3 0 6 -8 6 -19 0 -12 -5 -17
-14 -13 -12 4 -12 1 -1 -16 7 -11 17 -18 21 -16 12 7 10 -14 -3 -38 -7 -14 -8
-18 0 -14 7 5 9 -16 7 -64 -3 -43 0 -70 6 -70 6 0 5 -6 -2 -15 -7 -8 -10 -21
-7 -29 3 -8 -1 -20 -9 -26 -16 -14 -20 -65 -4 -55 6 3 11 -5 11 -19 2 -34 3
-39 12 -53 5 -7 5 -13 0 -13 -4 0 -3 -4 3 -8 15 -9 44 -67 44 -87 0 -8 5 -15
10 -15 6 0 8 11 3 28 -4 15 -8 39 -8 55 0 15 -5 27 -11 27 -6 0 -11 7 -11 15
0 11 4 12 11 5 15 -15 25 -12 24 8 0 9 3 28 6 41 3 13 -1 39 -9 58 -8 18 -10
31 -5 28 5 -3 11 -1 15 5 3 5 2 10 -4 10 -6 0 -8 6 -5 14 3 8 0 25 -7 38 -11
21 -11 22 4 10 15 -13 16 -5 10 89 -5 79 -3 100 6 94 10 -5 11 2 7 30 -4 21
-9 42 -13 49 -4 6 -8 70 -9 141 -3 257 -16 560 -25 577 -12 22 -12 37 0 19 6
-9 9 26 7 95 -1 60 -5 114 -9 121 -4 6 -3 14 3 18 5 3 10 16 10 28 0 106 3
147 11 147 6 0 8 -4 5 -8 -2 -4 -1 -14 5 -22 12 -21 12 40 -7 818 -9 370 -13
694 -9 720 6 39 16 55 75 114 37 37 65 68 61 68 -4 0 -34 -28 -68 -62z m-66
-2990 c-3 -8 -6 -5 -6 6 -1 11 2 17 5 13 3 -3 4 -12 1 -19z m-37 -162 c0 -3
-4 -8 -10 -11 -5 -3 -10 -1 -10 4 0 6 5 11 10 11 6 0 10 -2 10 -4z"/>
<path d="M1768 10373 c7 -3 16 -2 19 1 4 3 -2 6 -13 5 -11 0 -14 -3 -6 -6z"/>
<path d="M3226 10345 c8 -37 14 -45 14 -19 0 10 -5 26 -10 34 -8 11 -9 7 -4
-15z"/>
<path d="M3243 10265 c0 -22 2 -30 4 -17 2 12 2 30 0 40 -3 9 -5 -1 -4 -23z"/>
<path d="M3225 8269 c0 -1131 4 -1899 9 -1886 16 41 25 745 23 1902 -3 1674
-5 1882 -20 1888 -10 4 -12 -395 -12 -1904z"/>
<path d="M2381 9958 c-1 -27 4 -48 9 -48 12 0 12 34 0 70 -7 20 -8 16 -9 -22z"/>
<path d="M2225 9905 c8 -59 26 -3256 19 -3565 -3 -146 -7 -277 -9 -292 -3 -21
-1 -26 10 -21 10 3 15 19 15 45 0 21 3 37 8 34 4 -2 4 -44 0 -93 -3 -48 -6
-186 -5 -306 2 -181 5 -219 17 -227 10 -7 11 -10 3 -10 -10 0 -13 -72 -13
-326 0 -214 3 -323 10 -319 6 3 10 1 10 -4 0 -6 -4 -11 -10 -11 -6 0 -10 -66
-10 -178 l0 -178 -41 -39 c-45 -44 -139 -172 -139 -189 0 -6 7 -3 14 6 7 10
17 14 21 10 5 -4 5 -1 1 6 -9 15 45 89 109 151 45 42 48 43 96 38 l49 -6 0 91
0 91 -45 -5 c-25 -3 -45 -2 -45 3 0 4 19 9 43 11 l42 3 0 60 c0 60 0 60 -30
61 -16 0 -33 -4 -36 -9 -9 -12 -31 1 -24 14 4 5 24 9 46 9 l39 0 0 69 0 69
-37 -9 c-23 -5 -42 -4 -47 1 -7 7 1 10 21 10 59 0 63 6 63 81 l0 69 -27 -6
c-16 -3 -34 -7 -40 -10 -7 -2 -13 3 -13 12 0 8 6 14 13 13 6 -1 24 -1 40 0
l27 1 0 164 0 165 -30 -11 c-34 -11 -65 -4 -54 13 4 8 9 7 15 -2 6 -11 11 -11
21 -1 6 6 20 12 30 12 16 0 18 10 18 84 l0 85 -40 -4 c-22 -2 -40 0 -40 5 0 5
17 10 38 12 l37 3 0 89 0 89 -30 2 c-16 1 -33 -3 -37 -9 -5 -7 -8 -4 -8 7 0
13 8 17 34 17 19 0 38 4 41 10 3 5 3 48 -1 95 -6 74 -9 85 -25 85 -11 0 -19 5
-19 10 0 6 9 10 20 10 19 0 20 7 20 104 l0 104 -35 -2 c-19 -2 -35 1 -35 5 0
5 16 9 35 9 l35 0 0 111 0 111 -35 -4 c-25 -3 -35 0 -35 10 0 7 4 11 10 7 5
-3 21 -3 35 1 25 6 25 6 25 121 l0 115 -35 -4 c-25 -3 -35 0 -35 9 0 8 6 13
13 12 6 -1 22 -1 35 0 22 1 23 2 20 124 l-3 122 -30 1 c-29 0 -48 18 -22 20 6
0 22 2 34 2 21 2 23 6 19 60 -2 31 -4 90 -5 130 l-1 72 -35 0 c-19 0 -35 5
-35 10 0 6 16 10 35 10 l35 0 0 145 0 145 -27 -2 c-16 -2 -30 2 -33 7 -3 6 10
11 28 13 l32 3 0 148 0 149 -24 4 c-14 3 -30 0 -35 -5 -8 -8 -11 -6 -11 6 0
13 9 17 35 17 l35 0 -2 163 -3 162 -32 -1 c-22 -1 -33 3 -33 12 0 10 8 12 29
8 16 -3 32 -1 35 5 4 6 4 87 0 180 l-7 169 -28 -3 c-20 -3 -29 0 -29 10 0 11
8 13 30 9 l30 -6 0 192 0 193 -30 -6 c-22 -5 -30 -3 -30 8 0 10 10 15 30 15
l30 0 0 148 c0 81 -3 170 -6 199 -6 47 -8 51 -30 47 -17 -3 -24 0 -24 11 0 9
9 15 25 15 l25 0 0 214 0 214 -35 -1 -35 -1 -2 -140 -2 -141 -5 175 c-4 117
-10 182 -19 195 -11 18 -12 15 -7 -20z m55 -1125 c0 -5 -4 -10 -10 -10 -5 0
-10 5 -10 10 0 6 5 10 10 10 6 0 10 -4 10 -10z m24 -2805 c-4 -8 -8 -15 -10
-15 -2 0 -4 7 -4 15 0 8 4 15 10 15 5 0 7 -7 4 -15z m52 -764 c-3 -5 -22 -9
-41 -9 -19 0 -32 4 -29 9 3 5 21 9 40 9 19 0 33 -4 30 -9z m-69 -83 c-3 -8 -6
-5 -6 6 -1 11 2 17 5 13 3 -3 4 -12 1 -19z"/>
<path d="M2350 9415 l0 -425 35 0 35 0 0 200 0 200 -25 0 c-14 0 -25 5 -25 10
0 6 11 10 25 10 l25 0 0 169 c0 92 -3 189 -6 215 -6 42 -9 46 -35 46 l-29 0 0
-425z"/>
<path d="M2430 9625 l0 -215 35 0 35 0 0 193 c0 105 -3 202 -6 215 -5 16 -14
22 -35 22 l-29 0 0 -215z"/>
<path d="M2435 9392 c-7 -7 -6 -136 2 -280 l6 -122 34 0 33 0 0 148 c0 81 -3
170 -6 199 -6 47 -9 51 -35 55 -16 3 -31 2 -34 0z"/>
<path d="M2354 8966 c-7 -19 -1 -363 7 -370 3 -3 20 -3 37 0 l32 7 0 178 c0
98 -3 180 -7 182 -27 15 -64 16 -69 3z"/>
<path d="M2360 8405 l0 -175 35 0 35 0 0 175 0 175 -35 0 -35 0 0 -175z"/>
<path d="M2367 8214 c-4 -4 -7 -81 -7 -171 l0 -163 40 0 40 0 0 165 c0 125 -3
165 -12 165 -7 0 -22 3 -33 6 -11 3 -24 2 -28 -2z"/>
<path d="M2461 7870 c-11 -6 -12 -38 -6 -154 l7 -146 34 0 34 0 0 153 0 154
-28 1 c-16 0 -34 -3 -41 -8z"/>
<path d="M2540 7771 c0 -59 3 -129 6 -155 7 -45 8 -47 38 -44 l31 3 3 153 3
152 -41 0 -40 0 0 -109z"/>
<path d="M2373 7863 c-10 -3 -13 -44 -13 -154 l0 -150 43 3 c23 2 41 6 40 11
-2 4 -3 72 -3 152 l0 145 -27 -1 c-16 0 -34 -3 -40 -6z"/>
<path d="M2550 7502 c0 -51 3 -60 20 -65 12 -3 20 -14 20 -27 0 -13 -8 -24
-20 -27 -17 -5 -20 -14 -20 -59 l0 -54 40 0 41 0 -3 143 -3 142 -37 3 -38 3 0
-59z"/>
<path d="M2391 7543 l-33 -4 7 -142 c4 -78 9 -144 11 -146 1 -2 19 0 39 3 l36
7 -3 141 c-2 84 -7 142 -13 143 -5 1 -25 0 -44 -2z"/>
<path d="M2460 7404 l0 -145 38 3 37 3 3 143 3 142 -41 0 -40 0 0 -146z"/>
<path d="M3712 7500 c0 -14 2 -19 5 -12 2 6 2 18 0 25 -3 6 -5 1 -5 -13z"/>
<path d="M2408 7242 l-38 -3 0 -135 0 -134 35 0 c20 0 38 6 41 13 2 7 3 69 2
138 l-3 124 -37 -3z"/>
<path d="M3721 7224 c0 -11 3 -14 6 -6 3 7 2 16 -1 19 -3 4 -6 -2 -5 -13z"/>
<path d="M3720 7063 c0 -6 -9 -9 -22 -5 -12 3 -19 1 -15 -5 3 -5 8 -37 11 -72
4 -54 3 -61 -10 -51 -9 8 -14 9 -14 2 0 -6 8 -16 18 -21 9 -6 13 -11 9 -11 -4
0 9 -18 29 -40 42 -45 50 -46 34 -5 -6 15 -13 66 -16 114 -3 47 -9 90 -15 96
-6 5 -9 5 -9 -2z"/>
<path d="M2467 6956 c-3 -7 -3 -66 0 -130 l6 -116 26 0 c49 0 52 8 49 136 l-3
119 -36 2 c-24 2 -39 -2 -42 -11z"/>
<path d="M2370 6830 l0 -130 33 0 c59 0 60 5 52 139 l-7 121 -39 0 -39 0 0
-130z"/>
<path d="M3625 6760 c3 -5 11 -10 16 -10 6 0 7 5 4 10 -3 6 -11 10 -16 10 -6
0 -7 -4 -4 -10z"/>
<path d="M3676 6742 c-3 -5 1 -15 9 -22 12 -10 15 -10 15 1 0 9 3 10 11 2 8
-8 8 -19 1 -40 -7 -18 -11 -22 -11 -10 -1 10 -5 15 -11 12 -5 -3 -10 0 -10 7
-1 7 -6 3 -13 -9 -7 -12 -16 -23 -22 -24 -5 -1 -14 -3 -20 -5 -5 -1 -19 -5
-30 -7 -15 -4 -14 -5 6 -6 15 0 40 -8 55 -16 28 -15 30 -14 52 11 31 36 28
107 -5 112 -11 2 -24 -1 -27 -6z m14 -92 c0 -5 -2 -10 -4 -10 -3 0 -8 5 -11
10 -3 6 -1 10 4 10 6 0 11 -4 11 -10z"/>
<path d="M3593 6725 c0 -7 6 -11 14 -8 7 3 13 6 13 8 0 2 -6 5 -13 8 -8 3 -14
-1 -14 -8z"/>
<path d="M2370 6542 c0 -82 3 -189 6 -238 l7 -89 38 3 39 4 0 112 0 112 -42
-2 -43 -2 40 6 40 7 3 118 3 117 -46 0 -45 0 0 -148z"/>
<path d="M3870 6592 c6 -13 14 -21 18 -18 3 4 -2 14 -12 24 -18 16 -18 16 -6
-6z"/>
<path d="M3488 6543 c7 -3 16 -2 19 1 4 3 -2 6 -13 5 -11 0 -14 -3 -6 -6z"/>
<path d="M3606 6281 c-4 -7 -5 -15 -2 -18 9 -9 19 4 14 18 -4 11 -6 11 -12 0z"/>
<path d="M2386 6202 c-3 -3 -6 -25 -6 -49 0 -32 4 -43 16 -43 10 0 14 -7 12
-17 -2 -10 -10 -17 -16 -15 -8 1 -12 -13 -12 -42 0 -43 1 -45 33 -49 l32 -4
-32 -1 -33 -2 0 -289 c0 -267 1 -290 18 -294 15 -4 15 -5 -2 -6 -17 -1 -18 -7
-12 -78 5 -55 12 -82 23 -90 16 -12 16 -13 0 -13 -15 0 -16 -17 -16 -151 l0
-151 31 6 c17 3 37 6 44 6 11 0 14 17 14 71 0 61 -2 70 -17 68 -39 -3 -56 4
-23 10 33 6 35 8 41 56 l6 50 1 -47 c2 -43 5 -48 25 -48 62 1 67 7 67 87 0 73
-1 75 -22 69 -13 -3 -33 -6 -45 -6 -18 0 -23 -6 -24 -27 0 -24 -2 -25 -8 -8
-4 11 -19 23 -32 26 -24 7 -24 7 -1 8 21 1 22 5 22 86 l0 85 -25 -6 c-15 -4
-25 -2 -25 5 0 6 11 11 25 11 l25 0 -3 181 -2 182 -33 2 c-50 4 -51 15 -2 15
l43 0 -6 122 c-4 66 -7 160 -7 208 l0 86 -34 1 c-19 1 -37 -2 -40 -5z m58
-622 c-7 -7 -19 -7 -35 -1 -23 9 -22 10 11 10 23 1 31 -2 24 -9z"/>
<path d="M3570 6161 c0 -5 5 -13 10 -16 6 -3 10 -2 10 4 0 5 -4 13 -10 16 -5
3 -10 2 -10 -4z"/>
<path d="M2148 6043 c6 -2 18 -2 25 0 6 3 1 5 -13 5 -14 0 -19 -2 -12 -5z"/>
<path d="M2513 5993 l-33 -4 0 -101 0 -101 37 6 c20 4 40 10 45 15 9 9 -1 193
-11 190 -3 0 -21 -3 -38 -5z"/>
<path d="M3410 5855 c-14 -8 -20 -14 -14 -15 5 0 19 7 30 15 24 18 16 19 -16
0z"/>
<path d="M1876 5784 c-180 -33 -409 -128 -586 -244 -240 -158 -380 -313 -491
-545 -80 -169 -107 -321 -89 -502 12 -115 38 -206 110 -388 63 -159 109 -307
117 -376 11 -106 -32 -228 -127 -364 -318 -451 -437 -646 -510 -832 -85 -217
-123 -457 -101 -653 30 -279 129 -517 300 -720 310 -368 566 -591 833 -726
108 -54 130 -58 30 -5 -341 181 -596 590 -648 1041 -4 36 -7 122 -6 193 1 107
-1 127 -13 127 -11 0 -14 7 -10 23 4 12 1 35 -4 50 -7 17 -7 27 -1 27 6 0 9 3
9 8 -3 20 2 33 11 27 6 -4 7 -11 4 -17 -4 -6 0 -14 7 -19 10 -6 11 -9 2 -9 -7
0 -13 -4 -13 -10 0 -5 6 -7 13 -4 15 5 37 87 37 135 0 20 -4 28 -11 23 -7 -4
-10 -1 -7 7 3 8 11 13 17 12 15 -4 14 14 -1 20 -8 4 -7 6 4 6 9 1 20 13 26 28
5 16 28 81 51 146 23 65 39 122 36 127 -3 5 33 66 79 134 47 69 80 125 73 123
-12 -2 -67 -65 -67 -76 0 -3 -16 -24 -35 -46 -33 -37 -125 -180 -125 -194 0
-3 -9 -17 -20 -31 l-21 -25 13 30 c7 17 25 53 40 82 28 52 36 75 19 58 -16
-16 -131 -249 -131 -265 0 -13 -17 -67 -40 -125 -8 -21 -20 -65 -42 -154 -15
-61 -46 -88 -33 -30 4 19 11 35 16 37 16 6 10 22 -8 22 -14 0 -15 2 -4 9 11 7
11 9 0 14 -11 4 -11 6 -1 6 7 1 10 6 7 11 -3 6 -1 10 4 10 6 0 11 8 11 18 0
15 -2 15 -11 2 -8 -12 -9 -11 -6 5 2 11 9 19 15 18 7 -2 12 2 12 7 0 6 -7 10
-16 10 -15 0 -15 2 0 25 9 14 16 31 15 38 -3 25 1 37 14 37 7 0 22 21 35 48
24 51 28 77 11 66 -13 -8 27 70 49 98 8 9 11 21 8 27 -4 5 0 13 8 18 16 10
136 219 136 238 0 8 5 17 11 21 19 11 100 144 94 153 -3 5 0 13 6 17 8 5 9 3
4 -6 -5 -9 -4 -11 3 -6 7 4 12 12 12 18 0 5 9 21 20 35 11 14 20 35 20 46 0
11 3 18 6 14 8 -7 84 108 84 127 0 8 7 19 15 26 8 7 15 21 15 31 0 10 4 20 8
23 8 5 40 68 77 151 9 22 23 67 31 100 l14 60 -5 -79 c-5 -57 -12 -88 -29
-115 -13 -20 -28 -53 -35 -73 -7 -21 -17 -40 -22 -43 -5 -4 -9 -11 -9 -16 0
-6 4 -8 9 -4 5 3 12 1 16 -5 4 -6 -5 -10 -19 -10 -21 0 -26 -5 -25 -22 0 -13
3 -17 6 -10 2 6 9 12 14 12 4 0 6 -7 2 -16 -3 -8 -13 -14 -22 -11 -12 3 -24
-8 -39 -35 -16 -30 -18 -38 -7 -34 8 3 15 0 15 -5 0 -6 -9 -9 -19 -6 -22 5
-37 -19 -18 -27 8 -3 5 -11 -9 -23 -11 -10 -38 -52 -59 -93 -35 -69 -83 -153
-172 -303 -19 -32 -33 -61 -30 -63 5 -5 67 81 67 93 0 3 26 49 59 102 32 53
60 101 62 107 8 22 113 173 117 169 3 -3 -1 -13 -10 -22 -8 -10 -45 -69 -82
-131 -45 -76 -65 -117 -58 -124 6 -6 12 -6 16 1 4 5 13 8 20 5 7 -3 19 3 27
13 13 16 12 17 -3 4 -16 -12 -18 -11 -14 16 3 31 61 118 84 127 13 6 -19 -43
-56 -85 -19 -21 -20 -27 -9 -32 10 -4 27 11 48 41 18 25 26 42 18 37 -8 -4 0
5 17 21 30 27 114 137 114 148 0 3 16 26 35 52 19 25 35 50 35 56 0 5 10 24
22 41 13 18 22 33 21 34 -2 2 9 29 24 60 20 45 27 77 30 143 5 108 -17 186
-122 443 -42 104 -91 241 -108 305 -27 105 -30 131 -30 262 0 129 3 157 30
255 40 148 61 199 129 312 175 293 531 550 911 659 19 5 -5 64 -31 74 -11 5
-15 9 -7 9 8 1 -5 18 -29 39 -41 34 -48 37 -96 34 -30 -2 -55 1 -58 7 -5 7 2
11 18 11 41 0 40 18 -1 22 -28 2 -41 9 -48 26 -5 12 -12 22 -15 21 -3 0 -41
-7 -84 -15z m-51 -74 c-3 -5 -14 -10 -23 -9 -14 0 -13 2 3 9 27 11 27 11 20 0z
m-240 -49 c3 -5 0 -13 -6 -17 -8 -5 -9 -3 -4 6 6 10 4 12 -9 7 -10 -4 -21 -7
-25 -7 -4 0 -17 -9 -29 -21 -13 -11 -32 -19 -45 -17 -20 3 -20 5 9 20 17 10
34 14 38 11 3 -4 6 -1 6 5 0 17 55 28 65 13z m65 -16 c-14 -8 -29 -14 -35 -14
-5 0 1 6 15 14 14 8 30 14 35 14 6 0 -1 -6 -15 -14z m-150 -73 c-135 -79 -278
-190 -361 -279 -58 -63 -159 -207 -180 -258 -7 -16 -20 -41 -30 -55 -16 -25
-53 -131 -85 -243 -9 -32 -19 -99 -24 -150 -4 -50 -8 -82 -9 -69 0 14 -8 22
-18 22 -17 1 -17 1 0 11 13 8 17 23 16 67 0 41 -3 51 -9 37 -7 -16 -9 -11 -9
20 0 31 2 36 9 20 6 -13 9 -15 9 -5 0 8 -7 29 -15 45 -8 17 -12 22 -10 13 3
-10 -1 -34 -9 -55 -12 -35 -16 -35 -18 0 -4 55 51 245 100 346 36 75 87 156
135 213 36 43 41 46 64 36 l24 -11 -27 -29 c-14 -15 -24 -31 -20 -34 8 -8 86
76 87 94 0 6 5 12 11 12 15 0 64 52 61 63 -1 5 2 6 8 2 5 -3 10 -1 10 4 0 13
-10 14 -29 2 -9 -6 -20 -4 -30 6 -14 14 -12 18 14 40 59 47 147 104 153 98 15
-14 8 -31 -12 -30 -30 3 -45 -5 -40 -20 3 -7 -2 -15 -11 -19 -9 -3 -14 -10
-10 -15 3 -5 0 -13 -6 -17 -8 -4 -9 -3 -5 4 5 8 0 11 -16 9 -13 -2 -25 -12
-26 -22 -3 -11 0 -15 7 -11 6 4 11 2 11 -3 0 -18 16 -12 46 17 16 15 46 36 67
47 20 11 37 23 37 27 0 3 10 10 23 14 12 3 29 12 37 20 20 17 122 73 135 73 5
1 -19 -16 -55 -37z m-63 22 c-3 -3 -12 -4 -19 -1 -8 3 -5 6 6 6 11 1 17 -2 13
-5z m-32 -25 c2 -11 -8 -16 -34 -17 l-36 -2 24 20 c26 23 43 22 46 -1z m352
-64 c-48 -25 -93 -49 -100 -55 -6 -6 -30 -22 -52 -37 -22 -15 -72 -48 -111
-74 -179 -120 -353 -356 -431 -585 -35 -100 -60 -309 -50 -417 3 -40 3 -51 -3
-32 -4 17 -8 82 -9 145 -2 182 40 356 121 499 76 136 229 312 349 402 131 99
297 193 346 197 19 1 0 -12 -60 -43z m69 0 c-11 -8 -25 -15 -30 -15 -6 1 0 7
14 15 32 19 40 18 16 0z m-51 -35 c-11 -5 -27 -9 -35 -9 -13 -1 -13 0 0 9 8 5
24 9 35 9 l20 0 -20 -9z m-385 -14 c0 -2 -8 -10 -17 -17 -16 -13 -17 -12 -4 4
13 16 21 21 21 13z m316 -25 c-3 -5 -16 -11 -28 -14 -22 -6 -22 -5 -4 8 22 17
40 20 32 6z m-356 -5 c0 -2 -8 -10 -17 -17 -16 -13 -17 -12 -4 4 13 16 21 21
21 13z m279 -41 c-18 -7 -34 -17 -34 -23 0 -15 -9 -22 -34 -27 -42 -8 -24 10
63 62 11 6 24 9 30 6 5 -4 -6 -12 -25 -18z m-479 0 c10 -12 10 -18 0 -30 -15
-18 -21 -19 -44 -2 -17 13 -17 14 -1 30 20 21 29 21 45 2z m90 -67 c-124 -142
-129 -148 -152 -189 -12 -21 -30 -41 -40 -45 -9 -3 -17 -8 -15 -12 1 -4 -9
-24 -22 -45 -12 -21 -20 -44 -17 -53 3 -8 2 -13 -3 -10 -5 3 -12 -1 -15 -10
-9 -24 -7 -31 4 -14 8 13 10 13 10 1 0 -11 4 -9 15 5 13 18 14 18 8 -4 -6 -23
-23 -41 -23 -23 0 5 -8 8 -17 7 -20 -3 -62 -110 -49 -123 5 -4 11 -2 13 5 6
15 23 16 23 2 0 -6 -8 -27 -17 -48 -17 -39 -24 -64 -24 -96 0 -11 -7 -25 -16
-31 -11 -9 -13 -14 -5 -19 7 -4 12 -14 12 -22 0 -8 -4 -13 -9 -10 -9 6 -24
-112 -23 -179 l1 -40 -10 40 c-14 52 -5 239 16 330 21 92 51 176 92 252 18 34
33 69 33 77 0 7 7 16 14 19 8 3 23 21 32 39 25 49 88 124 172 206 42 39 77 72
80 72 2 0 -29 -37 -68 -82z m-120 11 c0 -13 -36 -36 -53 -34 -28 5 -29 10 -7
38 18 23 24 25 41 14 10 -6 19 -15 19 -18z m416 -28 c-4 -6 -19 -11 -34 -11
l-27 1 24 20 c24 20 51 13 37 -10z m-52 -42 c-3 -5 -17 -9 -32 -9 -25 1 -26 2
-9 15 20 14 51 10 41 -6z m-34 -30 c0 -12 -43 -34 -59 -30 -9 2 -12 -4 -8 -18
3 -15 -3 -23 -27 -35 -17 -8 -30 -19 -29 -23 3 -11 -55 -106 -89 -146 -24 -28
-28 -30 -34 -13 -4 10 -3 21 2 25 5 3 14 15 21 26 6 11 16 19 22 18 6 -2 8 3
5 11 -5 13 122 167 153 184 19 11 43 11 43 1z m-380 -189 c-27 -39 -34 -39
-12 0 9 16 21 30 25 30 5 0 -1 -13 -13 -30z m140 -108 c0 -11 -59 -100 -71
-108 -11 -6 -12 19 -1 30 7 8 8 13 11 42 1 11 7 14 17 10 11 -4 15 -2 11 8 -3
8 -3 17 0 20 9 9 33 7 33 -2z m-232 -72 c-7 -10 -14 -18 -15 -16 -6 6 9 36 18
36 5 0 4 -9 -3 -20z m162 -56 c0 -21 -45 -103 -52 -96 -11 11 27 102 42 102 5
0 10 -3 10 -6z m-69 -197 c-13 -13 -14 5 -3 43 l7 25 3 -29 c2 -16 -1 -33 -7
-39z m-314 6 c-3 -10 -5 -4 -5 12 0 17 2 24 5 18 2 -7 2 -21 0 -30z m413 -33
c0 -5 -8 -10 -17 -10 -15 0 -16 2 -3 10 19 12 20 12 20 0z m-413 -22 c-3 -8
-6 -5 -6 6 -1 11 2 17 5 13 3 -3 4 -12 1 -19z m303 -2 c0 -14 -3 -27 -7 -29
-5 -3 -8 8 -8 24 0 16 3 29 8 29 4 0 7 -11 7 -24z m100 -20 c0 -2 -7 -6 -15
-10 -8 -3 -15 -1 -15 4 0 6 7 10 15 10 8 0 15 -2 15 -4z m-113 -68 c-3 -7 -5
-2 -5 12 0 14 2 19 5 13 2 -7 2 -19 0 -25z m100 -20 c-3 -7 -5 -2 -5 12 0 14
2 19 5 13 2 -7 2 -19 0 -25z m-93 -51 c5 -27 4 -37 -3 -32 -6 3 -11 22 -11 42
0 44 5 41 14 -10z m-167 -69 c-3 -7 -5 -2 -5 12 0 14 2 19 5 13 2 -7 2 -19 0
-25z m171 -820 c-2 -23 1 -32 10 -30 16 3 6 -63 -15 -95 -8 -12 -13 -28 -10
-35 5 -14 -27 -83 -43 -93 -5 -3 -10 -15 -10 -26 0 -10 -4 -19 -10 -19 -5 0
-10 -7 -10 -15 0 -8 -5 -15 -11 -15 -6 0 -9 -6 -6 -13 3 -8 1 -20 -5 -28 -8
-11 -8 -10 -4 5 5 16 4 17 -9 6 -8 -7 -12 -17 -8 -23 3 -6 1 -7 -5 -3 -8 5
-12 -1 -12 -16 0 -18 2 -20 10 -8 5 8 11 12 14 9 3 -3 -9 -25 -25 -49 -17 -25
-28 -36 -25 -26 6 16 4 17 -10 6 -27 -23 -37 8 -12 39 37 49 89 134 83 139 -8
8 -36 -25 -89 -106 -49 -76 -74 -94 -35 -26 12 22 31 56 41 77 10 21 25 40 33
44 8 3 15 12 15 20 0 8 8 27 19 41 29 41 97 182 111 230 16 50 21 53 18 10z
m-150 -45 c-12 -32 -27 -65 -34 -73 -6 -8 -19 -31 -28 -50 -9 -19 -11 -27 -4
-16 7 10 21 28 32 40 18 21 18 21 2 -6 -9 -15 -16 -34 -16 -43 0 -8 -8 -15
-17 -15 -14 0 -15 -2 -4 -9 7 -5 10 -14 7 -20 -4 -6 -5 -11 -2 -11 3 0 17 17
31 37 14 21 25 33 25 27 0 -6 -16 -33 -35 -60 -19 -27 -35 -52 -35 -56 0 -4
-16 -32 -35 -63 -20 -30 -48 -81 -63 -112 -30 -64 -81 -153 -88 -153 -2 0 5
18 16 39 11 22 17 47 13 56 -3 10 -1 20 4 24 9 5 93 166 93 178 0 17 -24 -18
-50 -71 -16 -35 -37 -67 -46 -70 -9 -4 -14 -9 -10 -13 3 -3 -1 -18 -10 -32
-12 -17 -13 -26 -6 -29 8 -2 3 -20 -13 -52 -22 -43 -45 -72 -45 -55 0 8 22 47
39 67 7 9 11 23 8 30 -2 7 -13 -5 -23 -27 -11 -22 -25 -46 -32 -54 -8 -8 -12
-27 -10 -42 3 -17 -1 -30 -9 -33 -7 -3 -13 -10 -13 -16 0 -6 4 -8 10 -5 6 3 7
-1 4 -9 -3 -9 -10 -16 -16 -16 -5 0 -6 5 -3 10 3 6 2 10 -4 10 -5 0 -11 -8
-13 -17 -2 -12 -6 -14 -11 -6 -4 6 1 19 10 29 10 9 18 22 18 28 1 6 5 20 9 31
4 11 13 34 19 50 6 17 32 65 59 108 26 43 48 83 48 87 0 5 13 28 29 52 16 24
32 53 35 66 4 12 12 22 17 22 5 0 9 5 9 11 0 6 19 43 43 82 23 40 58 102 76
140 19 37 35 67 37 67 2 0 -6 -26 -18 -57z m256 -25 c-6 -48 -22 -93 -66 -183
-66 -137 -158 -310 -158 -300 -1 6 -9 -6 -20 -25 -11 -22 -15 -39 -9 -46 6 -7
2 -20 -11 -36 -10 -14 -16 -29 -12 -33 4 -5 2 -5 -5 -1 -12 7 -36 -26 -28 -38
3 -3 2 -4 -2 -1 -9 7 -43 -25 -43 -40 0 -14 -38 -90 -62 -124 -9 -13 -14 -29
-11 -37 3 -8 -2 -17 -11 -20 -9 -3 -16 -12 -16 -19 0 -7 -5 -15 -10 -17 -6 -2
-12 -13 -13 -26 0 -12 -4 -22 -8 -22 -4 0 -6 -6 -5 -12 0 -7 -3 -15 -9 -17
-12 -5 -34 -33 -35 -44 0 -5 5 -5 10 -2 14 9 12 -6 -6 -35 -8 -14 -13 -17 -10
-7 3 9 3 17 1 17 -7 0 -68 -132 -68 -147 0 -7 -5 -9 -10 -6 -6 3 -8 -9 -5 -30
2 -20 0 -33 -4 -31 -4 3 -8 -6 -8 -20 0 -14 -5 -28 -10 -31 -6 -3 -7 -17 -4
-29 3 -15 -1 -29 -11 -39 -9 -9 -13 -22 -9 -28 5 -8 3 -9 -7 -4 -12 8 -12 6 0
-8 7 -9 10 -17 5 -17 -5 0 -10 -12 -10 -27 -3 -62 -15 -157 -20 -162 -3 -4 -5
8 -3 24 2 17 0 36 -4 43 -5 6 -4 12 1 12 6 0 8 9 5 19 -3 10 0 28 6 40 9 15 9
21 1 21 -7 0 -9 10 -6 28 4 15 8 38 11 51 13 71 49 198 71 253 65 159 133 304
161 344 13 17 23 34 23 39 0 4 18 36 40 71 22 35 54 90 71 121 17 32 42 76 55
98 13 22 28 49 34 60 6 11 21 38 35 60 14 22 29 49 34 61 5 12 32 61 59 110
27 49 52 101 55 116 4 15 14 33 22 41 8 8 12 17 9 20 -5 5 13 47 20 47 2 0 2
-15 0 -32z m133 -170 c-3 -7 -5 -2 -5 12 0 14 2 19 5 13 2 -7 2 -19 0 -25z
m-149 10 c-2 -6 -10 -14 -16 -16 -7 -2 -10 2 -6 12 7 18 28 22 22 4z m142 -38
c0 -5 -5 -10 -11 -10 -5 0 -7 5 -4 10 3 6 8 10 11 10 2 0 4 -4 4 -10z m-213
-97 c-21 -47 -59 -104 -65 -98 -3 3 4 19 16 35 12 16 22 32 22 35 0 7 31 55
36 55 2 0 -3 -12 -9 -27z m163 -21 c0 -13 -12 -22 -22 -16 -10 6 -1 24 13 24
5 0 9 -4 9 -8z m-381 -129 c1 9 6 17 11 17 7 0 7 -7 0 -20 -6 -11 -15 -18 -19
-15 -5 2 -16 -6 -25 -20 -12 -18 -13 -25 -4 -25 9 0 8 -3 -2 -10 -8 -5 -11
-10 -6 -10 8 0 -39 -69 -55 -80 -4 -3 -9 -12 -11 -20 -2 -8 -15 -33 -29 -55
-37 -57 -61 -105 -52 -105 5 0 -3 -10 -17 -21 -14 -11 -20 -18 -13 -15 7 4 9
-1 6 -14 -3 -11 -10 -20 -15 -20 -5 0 -7 -4 -4 -9 3 -5 -7 -34 -23 -64 -16
-30 -34 -71 -41 -91 -16 -51 -34 -47 -26 6 4 23 11 47 15 53 5 5 21 39 36 75
15 36 33 72 40 80 7 8 16 26 20 40 4 14 19 38 32 54 13 16 22 35 19 42 -3 8
-1 14 4 14 5 0 16 14 25 30 9 17 13 30 10 30 -4 0 3 12 14 26 12 15 21 31 21
36 0 5 17 35 37 66 35 52 38 54 44 31 5 -16 7 -18 8 -6z m305 2 c-7 -16 -24
-21 -24 -6 0 8 7 13 27 20 1 1 0 -6 -3 -14z m83 -40 c-7 -13 -14 -20 -15 -14
-2 5 2 16 8 24 18 21 20 18 7 -10z m-544 -90 c-3 -9 -8 -14 -10 -11 -3 3 -2 9
2 15 9 16 15 13 8 -4z m-98 -66 c-13 -24 -25 -40 -25 -35 0 11 43 87 47 82 2
-2 -8 -23 -22 -47z m66 8 c-10 -9 -11 -8 -5 6 3 10 9 15 12 12 3 -3 0 -11 -7
-18z m-74 -153 c-29 -60 -68 -146 -87 -191 -18 -46 -35 -81 -37 -79 -6 6 55
155 114 274 30 62 57 111 59 109 3 -3 -19 -53 -49 -113z m305 99 c-14 -34 -47
-83 -55 -83 -10 0 9 37 24 45 5 4 14 18 19 31 5 13 12 24 14 24 3 0 2 -8 -2
-17z m-392 -43 c0 -11 -5 -20 -11 -20 -5 0 -7 -4 -4 -10 3 -5 1 -10 -6 -10 -6
0 -9 -8 -6 -20 3 -13 1 -18 -6 -13 -6 4 -8 -2 -4 -16 3 -15 -1 -24 -14 -32
-12 -6 -18 -17 -15 -27 8 -26 -11 -95 -29 -108 -9 -7 -17 -16 -17 -21 -1 -4
-7 -21 -13 -37 -7 -17 -11 -36 -8 -43 3 -7 -3 -20 -12 -29 -10 -11 -15 -28
-13 -45 3 -15 1 -26 -3 -23 -4 2 -10 -2 -12 -8 -9 -23 -7 25 2 56 64 216 75
248 124 359 30 67 47 84 47 47z m32 -42 c-7 -7 -12 -8 -12 -2 0 14 12 26 19
19 2 -3 -1 -11 -7 -17z m270 -69 c-15 -29 -34 -55 -40 -57 -7 -2 5 23 25 56
21 34 39 59 41 57 2 -1 -10 -27 -26 -56z m-314 -30 c-6 -16 -12 -28 -14 -26
-5 5 13 57 20 57 3 0 0 -14 -6 -31z m32 -209 c0 -5 -5 -10 -11 -10 -5 0 -7 5
-4 10 3 6 8 10 11 10 2 0 4 -4 4 -10z m290 -71 c-23 -41 -44 -82 -47 -91 -3
-10 -10 -18 -15 -18 -5 0 8 33 30 73 21 39 45 83 51 95 7 13 15 22 17 19 2 -2
-14 -37 -36 -78z m-340 -36 c-11 -17 -11 -17 -6 0 3 10 6 24 7 30 0 9 2 9 5 0
3 -7 0 -20 -6 -30z m-93 5 c-3 -8 -6 -5 -6 6 -1 11 2 17 5 13 3 -3 4 -12 1
-19z m363 -23 c0 -8 -4 -15 -10 -15 -5 0 -7 7 -4 15 4 8 8 15 10 15 2 0 4 -7
4 -15z m-423 -37 c-3 -8 -6 -5 -6 6 -1 11 2 17 5 13 3 -3 4 -12 1 -19z m333
-8 c0 -5 -5 -10 -11 -10 -5 0 -7 5 -4 10 3 6 8 10 11 10 2 0 4 -4 4 -10z
m-340 -85 c-5 -5 -10 -21 -13 -35 -3 -14 -4 -5 -2 20 6 67 6 67 14 45 5 -11 5
-24 1 -30z m397 9 c-3 -3 -12 -4 -19 -1 -8 3 -5 6 6 6 11 1 17 -2 13 -5z m-27
-78 c0 -3 -4 -8 -10 -11 -5 -3 -10 -1 -10 4 0 6 5 11 10 11 6 0 10 -2 10 -4z
m-385 -36 c3 -5 1 -10 -4 -10 -6 0 -11 5 -11 10 0 6 2 10 4 10 3 0 8 -4 11
-10z m356 -31 c-9 -22 -10 -22 -10 -3 -1 11 2 24 6 27 12 12 14 0 4 -24z
m-364 -51 c-3 -7 -5 -2 -5 12 0 14 2 19 5 13 2 -7 2 -19 0 -25z m383 -88 c0
-5 -5 -10 -11 -10 -5 0 -7 5 -4 10 3 6 8 10 11 10 2 0 4 -4 4 -10z m-90 -55
c0 -14 -4 -25 -8 -25 -4 0 -9 11 -10 25 -1 14 3 25 8 25 6 0 10 -11 10 -25z
m70 -71 c0 -8 -5 -12 -10 -9 -6 4 -8 11 -5 16 9 14 15 11 15 -7z"/>
<path d="M937 5114 c-10 -11 -9 -26 2 -20 5 4 11 1 13 -5 2 -7 10 -4 18 7 13
16 13 17 -2 11 -9 -3 -18 -1 -20 4 -2 6 -7 7 -11 3z"/>
<path d="M881 4962 c-17 -31 -13 -40 5 -14 9 13 14 26 11 29 -3 2 -10 -4 -16
-15z"/>
<path d="M846 4933 c-6 -14 -5 -15 5 -6 7 7 10 15 7 18 -3 3 -9 -2 -12 -12z"/>
<path d="M811 4832 c-13 -25 -14 -42 -2 -42 10 0 25 50 17 57 -2 3 -9 -4 -15
-15z"/>
<path d="M807 4752 c1 -8 3 -19 3 -25 0 -7 4 -6 10 3 5 8 10 22 10 30 0 12 -2
13 -9 1 -5 -7 -11 -9 -13 -5 -3 5 -3 3 -1 -4z"/>
<path d="M1008 3379 c-10 -6 -18 -16 -18 -24 0 -7 -9 -35 -20 -61 -11 -26 -18
-49 -15 -52 2 -3 8 4 12 14 4 10 20 40 36 66 31 52 33 73 5 57z"/>
<path d="M781 3229 c-15 -43 -14 -45 8 -25 24 22 34 56 16 56 -7 0 -18 -14
-24 -31z"/>
<path d="M416 2485 c-9 -26 -7 -32 5 -12 6 10 9 21 6 23 -2 3 -7 -2 -11 -11z"/>
<path d="M2513 5783 l-33 -4 0 -90 c0 -78 2 -89 18 -89 16 -1 16 -1 0 -11 -15
-8 -18 -24 -18 -88 0 -43 2 -80 4 -82 3 -3 23 -3 45 -1 l41 4 0 184 c0 141 -3
184 -12 182 -7 0 -28 -3 -45 -5z m44 -189 c-3 -3 -12 -4 -19 -1 -8 3 -5 6 6 6
11 1 17 -2 13 -5z"/>
<path d="M2428 4903 l-38 -4 0 -65 0 -65 43 3 42 3 3 68 c2 37 -1 66 -5 65 -4
-1 -25 -3 -45 -5z"/>
<path d="M2390 4694 c0 -60 1 -64 23 -64 59 0 67 8 67 70 l0 58 -45 0 -45 0 0
-64z"/>
<path d="M2289 4339 c-70 -68 -93 -100 -127 -169 -54 -109 -72 -183 -72 -290
0 -135 39 -243 124 -336 42 -47 161 -123 173 -110 3 3 2 227 -3 497 l-9 493
-86 -85z"/>
<path d="M2074 4192 c4 -7 3 -12 -3 -12 -5 0 -20 -31 -32 -69 -13 -39 -25 -68
-28 -66 -8 4 -10 -22 -15 -189 -2 -89 0 -133 6 -125 7 10 8 5 3 -14 -4 -21 -3
-27 6 -21 9 5 10 2 6 -10 -4 -10 3 -35 15 -59 12 -23 23 -50 24 -60 1 -10 13
-31 28 -46 14 -15 23 -31 19 -35 -5 -4 -1 -6 7 -4 8 2 14 -2 15 -9 0 -15 14
-28 28 -28 7 0 12 -7 12 -15 0 -8 5 -15 10 -15 13 -1 75 -34 75 -41 0 -3 -5
-2 -12 2 -7 4 -8 3 -4 -4 4 -6 14 -8 23 -5 12 5 14 3 8 -7 -5 -9 -4 -11 4 -6
6 4 24 -2 40 -13 18 -13 36 -18 47 -14 13 5 15 3 9 -7 -5 -8 -3 -11 5 -8 20 6
24 28 5 28 -9 0 -13 4 -10 10 4 6 -1 7 -11 3 -12 -5 -15 -3 -9 6 6 10 2 11
-15 6 -15 -5 -20 -4 -16 4 4 6 2 9 -7 6 -7 -3 -26 6 -41 20 -15 14 -31 23 -35
20 -12 -7 -43 30 -34 40 5 4 3 5 -3 2 -10 -6 -50 30 -85 77 -12 18 -12 19 1
11 8 -4 5 2 -7 14 -21 20 -27 34 -24 54 1 5 -4 5 -10 1 -9 -5 -10 -2 -6 10 4
11 3 15 -4 10 -8 -4 -9 1 -4 16 5 17 4 21 -6 15 -9 -6 -11 -3 -6 8 3 10 3 17
-1 17 -4 0 -8 8 -9 18 -1 9 -7 51 -14 92 -16 95 6 259 44 339 15 32 20 54 14
58 -6 3 -7 1 -3 -5z m6 -642 c6 -11 8 -20 6 -20 -3 0 -10 9 -16 20 -6 11 -8
20 -6 20 3 0 10 -9 16 -20z"/>
<path d="M2686 3359 c4 -8 -1 -9 -16 -4 -16 5 -20 4 -15 -5 5 -9 2 -10 -14 -5
-17 5 -21 2 -21 -14 0 -15 6 -21 21 -21 13 0 18 4 13 12 -4 6 -3 8 4 4 11 -7
62 13 62 25 0 4 -7 10 -16 13 -22 9 -26 8 -18 -5z"/>
<path d="M2402 3324 c2 -20 7 -24 23 -20 11 3 32 6 48 6 15 0 27 5 27 10 0 6
-11 10 -24 10 -14 0 -36 4 -50 10 -24 9 -26 7 -24 -16z"/>
<path d="M2510 3313 c0 -19 5 -23 28 -22 l27 1 -25 9 c-19 6 -13 8 23 4 41 -4
47 -2 47 14 0 15 -8 18 -50 17 -45 -1 -50 -3 -50 -23z"/>
<path d="M2468 3293 c6 -2 18 -2 25 0 6 3 1 5 -13 5 -14 0 -19 -2 -12 -5z"/>
<path d="M965 2617 c-5 -7 -16 -24 -23 -38 -11 -20 -8 -18 17 8 17 18 31 34
31 37 0 10 -15 6 -25 -7z"/>
<path d="M3300 2605 c-63 -13 -200 -40 -305 -60 -104 -20 -202 -38 -217 -41
-26 -5 -28 -10 -28 -50 0 -24 2 -44 5 -44 2 0 62 16 132 35 70 19 131 31 136
26 12 -12 -12 -26 -83 -45 -36 -10 -87 -24 -114 -32 -26 -8 -55 -14 -62 -14
-8 0 -19 -10 -24 -22 -6 -16 -9 -18 -9 -7 -1 15 -6 16 -48 5 -29 -8 -49 -19
-54 -31 -6 -15 -8 -16 -8 -4 -1 14 -8 15 -50 7 -46 -10 -49 -12 -64 -57 -9
-25 -15 -34 -12 -19 3 14 8 34 11 43 5 13 2 15 -20 9 -14 -3 -37 -7 -50 -8
-20 -1 -27 -9 -37 -44 -6 -23 -15 -45 -20 -47 -4 -3 -3 11 3 31 5 20 8 38 6
40 -3 2 -20 -1 -38 -6 -27 -8 -38 -7 -49 5 -19 19 -14 23 45 38 l49 12 3 54 3
54 -33 -7 c-39 -9 -354 -69 -521 -100 -71 -14 -122 -28 -128 -37 -27 -43 12
-159 54 -159 12 0 55 7 95 15 87 18 101 16 222 -45 166 -82 295 -113 470 -112
63 1 122 3 130 5 8 2 38 7 65 11 28 4 64 12 81 17 17 5 40 11 50 14 57 11 185
70 226 103 45 35 110 109 156 177 60 86 115 130 177 139 51 8 61 22 72 104 11
79 -22 86 -217 47z m-683 -327 c-3 -8 -6 -5 -6 6 -1 11 2 17 5 13 3 -3 4 -12
1 -19z"/>
<path d="M2663 2483 c-20 -4 -23 -10 -23 -55 0 -44 2 -49 18 -43 9 4 32 9 50
12 30 5 32 8 32 49 0 42 -1 44 -27 43 -16 -1 -38 -4 -50 -6z"/>
<path d="M2553 2463 c-33 -4 -33 -5 -33 -59 0 -30 1 -54 3 -54 2 0 27 7 55 15
l52 16 0 44 c0 49 3 48 -77 38z"/>
<path d="M2443 2443 c-33 -4 -33 -5 -33 -60 l0 -56 42 7 c57 9 58 11 58 67 0
53 4 51 -67 42z"/>
<path d="M707 1836 c-4 -10 -5 -21 -2 -24 9 -9 17 6 13 25 -3 17 -4 17 -11 -1z"/>
<path d="M3374 634 c-18 -14 -18 -15 4 -4 12 6 22 13 22 15 0 8 -5 6 -26 -11z"/>
<path d="M3250 570 c-41 -21 -72 -39 -67 -40 10 0 147 69 147 75 0 7 3 8 -80
-35z"/>
<path d="M1450 380 c8 -5 20 -10 25 -10 6 0 3 5 -5 10 -8 5 -19 10 -25 10 -5
0 -3 -5 5 -10z"/>
<path d="M1555 340 c28 -10 57 -18 65 -18 8 0 -7 8 -35 18 -27 10 -57 18 -65
18 -8 0 8 -8 35 -18z"/>
<path d="M1648 313 c7 -3 16 -2 19 1 4 3 -2 6 -13 5 -11 0 -14 -3 -6 -6z"/>
</g>
</svg>
